%FSLAX35Y35*%
%MOIN*%
%TF.FileFunction,Soldermask,Top*%
%ADD10C,0.00098*%
%ADD11C,0.00394*%
%ADD12C,0.00512*%
%ADD13C,0.00591*%
%ADD14C,0.00650*%
%ADD15C,0.00787*%
%ADD16C,0.01024*%
%ADD17C,0.01181*%
%ADD18C,0.02756*%
%ADD19C,0.03150*%
%ADD20C,0.03937*%
%ADD21C,0.12598*%
%ADD22C,0.15748*%
%AMR_23*21,1,0.05906,0.05906,0,0,0.000*%
%ADD23R_23*%
%AMR_24*21,1,0.05984,0.05984,0,0,90.000*%
%ADD24R_24*%
%AMR_25*21,1,0.06299,0.11811,0,0,270.000*%
%ADD25R_25*%
%AMR_26*21,1,0.06496,0.07992,0,0,90.000*%
%ADD26R_26*%
%AMR_27*21,1,0.19685,0.07874,0,0,0.000*%
%ADD27R_27*%
%AMR_28*21,1,0.19685,0.19685,0,0,0.000*%
%ADD28R_28*%
%AMR_29*21,1,0.26378,0.26378,0,0,270.000*%
%ADD29R_29*%
%ADD30O,0.03150X0.06693*%
%ADD31O,0.03150X0.08661*%
%ADD32O,0.08661X0.15748*%
%AMRR_33*21,1,0.03543,0.05591,0,0,0.000*21,1,0.02835,0.06299,0,0,0.000*1,1,0.00709,0.01417,0.02795*1,1,0.00709,-0.01417,-0.02795*1,1,0.00709,0.01417,-0.02795*1,1,0.00709,-0.01417,0.02795*%
%ADD33RR_33*%
%AMRR_34*21,1,0.03543,0.05591,0,0,90.000*21,1,0.02835,0.06299,0,0,90.000*1,1,0.00709,-0.02795,0.01417*1,1,0.00709,0.02795,-0.01417*1,1,0.00709,0.02795,0.01417*1,1,0.00709,-0.02795,-0.01417*%
%ADD34RR_34*%
%AMRR_35*21,1,0.03543,0.05591,0,0,180.000*21,1,0.02835,0.06299,0,0,180.000*1,1,0.00709,-0.01417,-0.02795*1,1,0.00709,0.01417,0.02795*1,1,0.00709,-0.01417,0.02795*1,1,0.00709,0.01417,-0.02795*%
%ADD35RR_35*%
%AMRR_36*21,1,0.03543,0.05591,0,0,270.000*21,1,0.02835,0.06299,0,0,270.000*1,1,0.00709,0.02795,-0.01417*1,1,0.00709,-0.02795,0.01417*1,1,0.00709,-0.02795,-0.01417*1,1,0.00709,0.02795,0.01417*%
%ADD36RR_36*%
%AMRR_37*21,1,0.06614,0.02488,0,0,90.000*21,1,0.05992,0.03110,0,0,90.000*1,1,0.00622,-0.01244,0.02996*1,1,0.00622,0.01244,-0.02996*1,1,0.00622,0.01244,0.02996*1,1,0.00622,-0.01244,-0.02996*%
%ADD37RR_37*%
G54D10*
X51550Y71653D02*
X51550Y71653D01*
X51457Y73250D01*
X51179Y74825D01*
X50720Y76358D01*
X50087Y77826D01*
X49287Y79211D01*
X48332Y80495D01*
X47234Y81658D01*
X46009Y82686D01*
X44672Y83565D01*
X43243Y84283D01*
X41740Y84830D01*
X40183Y85199D01*
X38595Y85385D01*
X36995Y85385D01*
X35406Y85199D01*
X33850Y84830D01*
X32347Y84283D01*
X30917Y83565D01*
X29581Y82686D01*
X28356Y81658D01*
X27258Y80495D01*
X26303Y79211D01*
X25503Y77826D01*
X24869Y76358D01*
X24411Y74825D01*
X24133Y73250D01*
X24040Y71653D01*
X24133Y70056D01*
X24411Y68481D01*
X24869Y66949D01*
X25503Y65480D01*
X26303Y64095D01*
X27258Y62812D01*
X28356Y61648D01*
X29581Y60620D01*
X30917Y59741D01*
X32347Y59023D01*
X33850Y58476D01*
X35406Y58107D01*
X36995Y57921D01*
X38595Y57921D01*
X40183Y58107D01*
X41740Y58476D01*
X43243Y59023D01*
X44672Y59741D01*
X46009Y60620D01*
X47234Y61648D01*
X48332Y62812D01*
X49287Y64095D01*
X50087Y65480D01*
X50720Y66949D01*
X51179Y68481D01*
X51457Y70056D01*
X51550Y71653D01*
X36363Y57995D02*
X39226Y57995D01*
X35732Y58069D02*
X39858Y58069D01*
X35255Y58143D02*
X40334Y58143D01*
X34944Y58217D02*
X40646Y58217D01*
X34632Y58290D02*
X40957Y58290D01*
X34321Y58364D02*
X41269Y58364D01*
X34010Y58438D02*
X41580Y58438D01*
X33751Y58512D02*
X41839Y58512D01*
X33548Y58586D02*
X42041Y58586D01*
X33345Y58660D02*
X42244Y58660D01*
X33143Y58733D02*
X42447Y58733D01*
X32940Y58807D02*
X42650Y58807D01*
X32737Y58881D02*
X42853Y58881D01*
X32534Y58955D02*
X43055Y58955D01*
X32336Y59029D02*
X43254Y59029D01*
X32189Y59102D02*
X43401Y59102D01*
X32042Y59176D02*
X43548Y59176D01*
X31895Y59250D02*
X43695Y59250D01*
X31748Y59324D02*
X43842Y59324D01*
X31601Y59398D02*
X43989Y59398D01*
X31454Y59472D02*
X44136Y59472D01*
X31307Y59545D02*
X44283Y59545D01*
X31160Y59619D02*
X44430Y59619D01*
X31013Y59693D02*
X44577Y59693D01*
X30878Y59767D02*
X44712Y59767D01*
X30766Y59841D02*
X44824Y59841D01*
X30653Y59915D02*
X44936Y59915D01*
X30541Y59988D02*
X45048Y59988D01*
X30429Y60062D02*
X45161Y60062D01*
X30317Y60136D02*
X45273Y60136D01*
X30204Y60210D02*
X45385Y60210D01*
X30092Y60284D02*
X45497Y60284D01*
X29980Y60357D02*
X45610Y60357D01*
X29868Y60431D02*
X45722Y60431D01*
X29756Y60505D02*
X45834Y60505D01*
X29643Y60579D02*
X45946Y60579D01*
X29542Y60653D02*
X46048Y60653D01*
X29454Y60727D02*
X46136Y60727D01*
X29366Y60800D02*
X46224Y60800D01*
X29278Y60874D02*
X46312Y60874D01*
X29190Y60948D02*
X46400Y60948D01*
X29102Y61022D02*
X46488Y61022D01*
X29014Y61096D02*
X46576Y61096D01*
X28926Y61169D02*
X46664Y61169D01*
X28838Y61243D02*
X46752Y61243D01*
X28750Y61317D02*
X46839Y61317D01*
X28662Y61391D02*
X46927Y61391D01*
X28574Y61465D02*
X47015Y61465D01*
X28486Y61539D02*
X47103Y61539D01*
X28398Y61612D02*
X47191Y61612D01*
X28320Y61686D02*
X47270Y61686D01*
X28250Y61760D02*
X47340Y61760D01*
X28180Y61834D02*
X47409Y61834D01*
X28111Y61908D02*
X47479Y61908D01*
X28041Y61981D02*
X47548Y61981D01*
X27971Y62055D02*
X47618Y62055D01*
X27902Y62129D02*
X47688Y62129D01*
X27832Y62203D02*
X47757Y62203D01*
X27762Y62277D02*
X47827Y62277D01*
X27693Y62351D02*
X47897Y62351D01*
X27623Y62424D02*
X47966Y62424D01*
X27554Y62498D02*
X48036Y62498D01*
X27484Y62572D02*
X48106Y62572D01*
X27414Y62646D02*
X48175Y62646D01*
X27345Y62720D02*
X48245Y62720D01*
X27275Y62793D02*
X48315Y62793D01*
X27216Y62867D02*
X48373Y62867D01*
X27161Y62941D02*
X48428Y62941D01*
X27107Y63015D02*
X48483Y63015D01*
X27052Y63089D02*
X48538Y63089D01*
X26997Y63163D02*
X48593Y63163D01*
X26942Y63236D02*
X48648Y63236D01*
X26887Y63310D02*
X48703Y63310D01*
X26832Y63384D02*
X48758Y63384D01*
X26777Y63458D02*
X48813Y63458D01*
X26722Y63532D02*
X48868Y63532D01*
X26667Y63605D02*
X48923Y63605D01*
X26612Y63679D02*
X48978Y63679D01*
X26557Y63753D02*
X49033Y63753D01*
X26502Y63827D02*
X49088Y63827D01*
X26447Y63901D02*
X49143Y63901D01*
X26392Y63975D02*
X49197Y63975D01*
X26337Y64048D02*
X49252Y64048D01*
X26287Y64122D02*
X49303Y64122D01*
X26244Y64196D02*
X49345Y64196D01*
X26202Y64270D02*
X49388Y64270D01*
X26159Y64344D02*
X49431Y64344D01*
X26116Y64417D02*
X49473Y64417D01*
X26074Y64491D02*
X49516Y64491D01*
X26031Y64565D02*
X49558Y64565D01*
X25988Y64639D02*
X49601Y64639D01*
X25946Y64713D02*
X49644Y64713D01*
X25903Y64787D02*
X49686Y64787D01*
X25861Y64860D02*
X49729Y64860D01*
X25818Y64934D02*
X49772Y64934D01*
X25775Y65008D02*
X49814Y65008D01*
X25733Y65082D02*
X49857Y65082D01*
X25690Y65156D02*
X49899Y65156D01*
X25647Y65229D02*
X49942Y65229D01*
X25605Y65303D02*
X49985Y65303D01*
X25562Y65377D02*
X50027Y65377D01*
X25520Y65451D02*
X50070Y65451D01*
X25484Y65525D02*
X50106Y65525D01*
X25452Y65599D02*
X50138Y65599D01*
X25420Y65672D02*
X50170Y65672D01*
X25388Y65746D02*
X50202Y65746D01*
X25356Y65820D02*
X50233Y65820D01*
X25324Y65894D02*
X50265Y65894D01*
X25293Y65968D02*
X50297Y65968D01*
X25261Y66041D02*
X50329Y66041D01*
X25229Y66115D02*
X50361Y66115D01*
X25197Y66189D02*
X50393Y66189D01*
X25165Y66263D02*
X50424Y66263D01*
X25133Y66337D02*
X50456Y66337D01*
X25101Y66411D02*
X50488Y66411D01*
X25070Y66484D02*
X50520Y66484D01*
X25038Y66558D02*
X50552Y66558D01*
X25006Y66632D02*
X50584Y66632D01*
X24974Y66706D02*
X50615Y66706D01*
X24942Y66780D02*
X50647Y66780D01*
X24910Y66853D02*
X50679Y66853D01*
X24879Y66927D02*
X50711Y66927D01*
X24854Y67001D02*
X50736Y67001D01*
X24832Y67075D02*
X50758Y67075D01*
X24809Y67149D02*
X50780Y67149D01*
X24787Y67223D02*
X50802Y67223D01*
X24765Y67296D02*
X50824Y67296D01*
X24743Y67370D02*
X50846Y67370D01*
X24721Y67444D02*
X50869Y67444D01*
X24699Y67518D02*
X50891Y67518D01*
X24677Y67592D02*
X50913Y67592D01*
X24655Y67665D02*
X50935Y67665D01*
X24633Y67739D02*
X50957Y67739D01*
X24611Y67813D02*
X50979Y67813D01*
X24588Y67887D02*
X51001Y67887D01*
X24566Y67961D02*
X51023Y67961D01*
X24544Y68035D02*
X51045Y68035D01*
X24522Y68108D02*
X51067Y68108D01*
X24500Y68182D02*
X51090Y68182D01*
X24478Y68256D02*
X51112Y68256D01*
X24456Y68330D02*
X51134Y68330D01*
X24434Y68404D02*
X51156Y68404D01*
X24412Y68477D02*
X51178Y68477D01*
X24398Y68551D02*
X51191Y68551D01*
X24385Y68625D02*
X51204Y68625D01*
X24372Y68699D02*
X51217Y68699D01*
X24359Y68773D02*
X51230Y68773D01*
X24346Y68847D02*
X51243Y68847D01*
X24333Y68920D02*
X51256Y68920D01*
X24320Y68994D02*
X51269Y68994D01*
X24307Y69068D02*
X51282Y69068D01*
X24294Y69142D02*
X51295Y69142D01*
X24281Y69216D02*
X51308Y69216D01*
X24268Y69290D02*
X51322Y69290D01*
X24255Y69363D02*
X51335Y69363D01*
X24242Y69437D02*
X51348Y69437D01*
X24229Y69511D02*
X51361Y69511D01*
X24216Y69585D02*
X51374Y69585D01*
X24203Y69659D02*
X51387Y69659D01*
X24190Y69732D02*
X51400Y69732D01*
X24177Y69806D02*
X51413Y69806D01*
X24164Y69880D02*
X51426Y69880D01*
X24151Y69954D02*
X51439Y69954D01*
X24138Y70028D02*
X51452Y70028D01*
X24130Y70102D02*
X51459Y70102D01*
X24126Y70175D02*
X51464Y70175D01*
X24122Y70249D02*
X51468Y70249D01*
X24117Y70323D02*
X51472Y70323D01*
X24113Y70397D02*
X51477Y70397D01*
X24109Y70471D02*
X51481Y70471D01*
X24104Y70544D02*
X51485Y70544D01*
X24100Y70618D02*
X51489Y70618D01*
X24096Y70692D02*
X51494Y70692D01*
X24092Y70766D02*
X51498Y70766D01*
X24087Y70840D02*
X51502Y70840D01*
X24083Y70914D02*
X51507Y70914D01*
X24079Y70987D02*
X51511Y70987D01*
X24074Y71061D02*
X51515Y71061D01*
X24070Y71135D02*
X51520Y71135D01*
X24066Y71209D02*
X51524Y71209D01*
X24061Y71283D02*
X51528Y71283D01*
X24057Y71356D02*
X51532Y71356D01*
X24053Y71430D02*
X51537Y71430D01*
X24049Y71504D02*
X51541Y71504D01*
X24044Y71578D02*
X51545Y71578D01*
X24040Y71652D02*
X51550Y71652D01*
X24044Y71726D02*
X51545Y71726D01*
X24048Y71799D02*
X51541Y71799D01*
X24053Y71873D02*
X51537Y71873D01*
X24057Y71947D02*
X51533Y71947D01*
X24061Y72021D02*
X51528Y72021D01*
X24066Y72095D02*
X51524Y72095D01*
X24070Y72168D02*
X51520Y72168D01*
X24074Y72242D02*
X51515Y72242D01*
X24078Y72316D02*
X51511Y72316D01*
X24083Y72390D02*
X51507Y72390D01*
X24087Y72464D02*
X51502Y72464D01*
X24091Y72538D02*
X51498Y72538D01*
X24096Y72611D02*
X51494Y72611D01*
X24100Y72685D02*
X51490Y72685D01*
X24104Y72759D02*
X51485Y72759D01*
X24109Y72833D02*
X51481Y72833D01*
X24113Y72907D02*
X51477Y72907D01*
X24117Y72980D02*
X51472Y72980D01*
X24121Y73054D02*
X51468Y73054D01*
X24126Y73128D02*
X51464Y73128D01*
X24130Y73202D02*
X51459Y73202D01*
X24137Y73276D02*
X51452Y73276D01*
X24150Y73350D02*
X51439Y73350D01*
X24163Y73423D02*
X51426Y73423D01*
X24176Y73497D02*
X51413Y73497D01*
X24189Y73571D02*
X51400Y73571D01*
X24202Y73645D02*
X51387Y73645D01*
X24216Y73719D02*
X51374Y73719D01*
X24229Y73792D02*
X51361Y73792D01*
X24242Y73866D02*
X51348Y73866D01*
X24255Y73940D02*
X51335Y73940D01*
X24268Y74014D02*
X51322Y74014D01*
X24281Y74088D02*
X51309Y74088D01*
X24294Y74162D02*
X51296Y74162D01*
X24307Y74235D02*
X51283Y74235D01*
X24320Y74309D02*
X51270Y74309D01*
X24333Y74383D02*
X51257Y74383D01*
X24346Y74457D02*
X51244Y74457D01*
X24359Y74531D02*
X51231Y74531D01*
X24372Y74604D02*
X51218Y74604D01*
X24385Y74678D02*
X51205Y74678D01*
X24398Y74752D02*
X51192Y74752D01*
X24411Y74826D02*
X51179Y74826D01*
X24433Y74900D02*
X51157Y74900D01*
X24455Y74974D02*
X51135Y74974D01*
X24477Y75047D02*
X51112Y75047D01*
X24499Y75121D02*
X51090Y75121D01*
X24521Y75195D02*
X51068Y75195D01*
X24543Y75269D02*
X51046Y75269D01*
X24566Y75343D02*
X51024Y75343D01*
X24588Y75416D02*
X51002Y75416D01*
X24610Y75490D02*
X50980Y75490D01*
X24632Y75564D02*
X50958Y75564D01*
X24654Y75638D02*
X50936Y75638D01*
X24676Y75712D02*
X50914Y75712D01*
X24698Y75786D02*
X50891Y75786D01*
X24720Y75859D02*
X50869Y75859D01*
X24742Y75933D02*
X50847Y75933D01*
X24764Y76007D02*
X50825Y76007D01*
X24787Y76081D02*
X50803Y76081D01*
X24809Y76155D02*
X50781Y76155D01*
X24831Y76228D02*
X50759Y76228D01*
X24853Y76302D02*
X50737Y76302D01*
X24877Y76376D02*
X50712Y76376D01*
X24909Y76450D02*
X50680Y76450D01*
X24941Y76524D02*
X50648Y76524D01*
X24973Y76598D02*
X50617Y76598D01*
X25005Y76671D02*
X50585Y76671D01*
X25037Y76745D02*
X50553Y76745D01*
X25068Y76819D02*
X50521Y76819D01*
X25100Y76893D02*
X50489Y76893D01*
X25132Y76967D02*
X50457Y76967D01*
X25164Y77040D02*
X50426Y77040D01*
X25196Y77114D02*
X50394Y77114D01*
X25228Y77188D02*
X50362Y77188D01*
X25260Y77262D02*
X50330Y77262D01*
X25291Y77336D02*
X50298Y77336D01*
X25323Y77410D02*
X50266Y77410D01*
X25355Y77483D02*
X50235Y77483D01*
X25387Y77557D02*
X50203Y77557D01*
X25419Y77631D02*
X50171Y77631D01*
X25451Y77705D02*
X50139Y77705D01*
X25482Y77779D02*
X50107Y77779D01*
X25518Y77852D02*
X50071Y77852D01*
X25561Y77926D02*
X50029Y77926D01*
X25603Y78000D02*
X49986Y78000D01*
X25646Y78074D02*
X49944Y78074D01*
X25689Y78148D02*
X49901Y78148D01*
X25731Y78222D02*
X49858Y78222D01*
X25774Y78295D02*
X49816Y78295D01*
X25816Y78369D02*
X49773Y78369D01*
X25859Y78443D02*
X49731Y78443D01*
X25902Y78517D02*
X49688Y78517D01*
X25944Y78591D02*
X49645Y78591D01*
X25987Y78665D02*
X49603Y78665D01*
X26030Y78738D02*
X49560Y78738D01*
X26072Y78812D02*
X49517Y78812D01*
X26115Y78886D02*
X49475Y78886D01*
X26157Y78960D02*
X49432Y78960D01*
X26200Y79034D02*
X49390Y79034D01*
X26243Y79107D02*
X49347Y79107D01*
X26285Y79181D02*
X49304Y79181D01*
X26335Y79255D02*
X49254Y79255D01*
X26390Y79329D02*
X49199Y79329D01*
X26445Y79403D02*
X49145Y79403D01*
X26500Y79477D02*
X49090Y79477D01*
X26555Y79550D02*
X49035Y79550D01*
X26610Y79624D02*
X48980Y79624D01*
X26665Y79698D02*
X48925Y79698D01*
X26720Y79772D02*
X48870Y79772D01*
X26775Y79846D02*
X48815Y79846D01*
X26830Y79919D02*
X48760Y79919D01*
X26885Y79993D02*
X48705Y79993D01*
X26940Y80067D02*
X48650Y80067D01*
X26995Y80141D02*
X48595Y80141D01*
X27050Y80215D02*
X48540Y80215D01*
X27105Y80289D02*
X48485Y80289D01*
X27159Y80362D02*
X48430Y80362D01*
X27214Y80436D02*
X48375Y80436D01*
X27272Y80510D02*
X48317Y80510D01*
X27342Y80584D02*
X48247Y80584D01*
X27412Y80658D02*
X48178Y80658D01*
X27481Y80731D02*
X48108Y80731D01*
X27551Y80805D02*
X48039Y80805D01*
X27621Y80879D02*
X47969Y80879D01*
X27690Y80953D02*
X47899Y80953D01*
X27760Y81027D02*
X47830Y81027D01*
X27830Y81101D02*
X47760Y81101D01*
X27899Y81174D02*
X47690Y81174D01*
X27969Y81248D02*
X47621Y81248D01*
X28039Y81322D02*
X47551Y81322D01*
X28108Y81396D02*
X47481Y81396D01*
X28178Y81470D02*
X47412Y81470D01*
X28247Y81543D02*
X47342Y81543D01*
X28317Y81617D02*
X47272Y81617D01*
X28395Y81691D02*
X47195Y81691D01*
X28483Y81765D02*
X47107Y81765D01*
X28571Y81839D02*
X47019Y81839D01*
X28659Y81913D02*
X46931Y81913D01*
X28747Y81986D02*
X46843Y81986D01*
X28835Y82060D02*
X46755Y82060D01*
X28923Y82134D02*
X46667Y82134D01*
X29011Y82208D02*
X46579Y82208D01*
X29099Y82282D02*
X46491Y82282D01*
X29187Y82355D02*
X46403Y82355D01*
X29275Y82429D02*
X46315Y82429D01*
X29363Y82503D02*
X46227Y82503D01*
X29451Y82577D02*
X46139Y82577D01*
X29539Y82651D02*
X46051Y82651D01*
X29639Y82725D02*
X45950Y82725D01*
X29751Y82798D02*
X45838Y82798D01*
X29864Y82872D02*
X45726Y82872D01*
X29976Y82946D02*
X45614Y82946D01*
X30088Y83020D02*
X45501Y83020D01*
X30200Y83094D02*
X45389Y83094D01*
X30313Y83167D02*
X45277Y83167D01*
X30425Y83241D02*
X45165Y83241D01*
X30537Y83315D02*
X45052Y83315D01*
X30649Y83389D02*
X44940Y83389D01*
X30762Y83463D02*
X44828Y83463D01*
X30874Y83537D02*
X44716Y83537D01*
X31007Y83610D02*
X44582Y83610D01*
X31154Y83684D02*
X44435Y83684D01*
X31301Y83758D02*
X44288Y83758D01*
X31448Y83832D02*
X44141Y83832D01*
X31595Y83906D02*
X43994Y83906D01*
X31742Y83979D02*
X43847Y83979D01*
X31889Y84053D02*
X43700Y84053D01*
X32036Y84127D02*
X43553Y84127D01*
X32183Y84201D02*
X43406Y84201D01*
X32330Y84275D02*
X43259Y84275D01*
X32527Y84349D02*
X43063Y84349D01*
X32730Y84422D02*
X42860Y84422D01*
X32932Y84496D02*
X42657Y84496D01*
X33135Y84570D02*
X42454Y84570D01*
X33338Y84644D02*
X42252Y84644D01*
X33541Y84718D02*
X42049Y84718D01*
X33744Y84791D02*
X41846Y84791D01*
X33998Y84865D02*
X41591Y84865D01*
X34310Y84939D02*
X41280Y84939D01*
X34621Y85013D02*
X40968Y85013D01*
X34933Y85087D02*
X40657Y85087D01*
X35244Y85161D02*
X40345Y85161D01*
X35709Y85234D02*
X39881Y85234D01*
X36341Y85308D02*
X39249Y85308D01*
X36972Y85382D02*
X38617Y85382D01*
X209030Y71653D02*
X209030Y71653D01*
X208937Y73250D01*
X208659Y74825D01*
X208200Y76358D01*
X207567Y77826D01*
X206767Y79211D01*
X205812Y80495D01*
X204714Y81658D01*
X203489Y82686D01*
X202153Y83565D01*
X200723Y84283D01*
X199220Y84830D01*
X197664Y85199D01*
X196075Y85385D01*
X194475Y85385D01*
X192887Y85199D01*
X191330Y84830D01*
X189827Y84283D01*
X188398Y83565D01*
X187061Y82686D01*
X185836Y81658D01*
X184738Y80495D01*
X183783Y79211D01*
X182983Y77826D01*
X182350Y76358D01*
X181891Y74825D01*
X181613Y73250D01*
X181520Y71653D01*
X181613Y70056D01*
X181891Y68481D01*
X182350Y66949D01*
X182983Y65480D01*
X183783Y64095D01*
X184738Y62812D01*
X185836Y61648D01*
X187061Y60620D01*
X188398Y59741D01*
X189827Y59023D01*
X191330Y58476D01*
X192887Y58107D01*
X194475Y57921D01*
X196075Y57921D01*
X197664Y58107D01*
X199220Y58476D01*
X200723Y59023D01*
X202153Y59741D01*
X203489Y60620D01*
X204714Y61648D01*
X205812Y62812D01*
X206767Y64095D01*
X207567Y65480D01*
X208200Y66949D01*
X208659Y68481D01*
X208937Y70056D01*
X209030Y71653D01*
X193844Y57995D02*
X196706Y57995D01*
X193212Y58069D02*
X197338Y58069D01*
X192736Y58143D02*
X197814Y58143D01*
X192424Y58217D02*
X198126Y58217D01*
X192113Y58290D02*
X198437Y58290D01*
X191801Y58364D02*
X198749Y58364D01*
X191490Y58438D02*
X199060Y58438D01*
X191231Y58512D02*
X199319Y58512D01*
X191028Y58586D02*
X199522Y58586D01*
X190826Y58660D02*
X199725Y58660D01*
X190623Y58733D02*
X199927Y58733D01*
X190420Y58807D02*
X200130Y58807D01*
X190217Y58881D02*
X200333Y58881D01*
X190014Y58955D02*
X200536Y58955D01*
X189816Y59029D02*
X200734Y59029D01*
X189669Y59102D02*
X200881Y59102D01*
X189522Y59176D02*
X201028Y59176D01*
X189375Y59250D02*
X201175Y59250D01*
X189228Y59324D02*
X201322Y59324D01*
X189081Y59398D02*
X201469Y59398D01*
X188934Y59472D02*
X201616Y59472D01*
X188787Y59545D02*
X201763Y59545D01*
X188640Y59619D02*
X201910Y59619D01*
X188493Y59693D02*
X202057Y59693D01*
X188358Y59767D02*
X202192Y59767D01*
X188246Y59841D02*
X202304Y59841D01*
X188134Y59915D02*
X202416Y59915D01*
X188021Y59988D02*
X202529Y59988D01*
X187909Y60062D02*
X202641Y60062D01*
X187797Y60136D02*
X202753Y60136D01*
X187685Y60210D02*
X202865Y60210D01*
X187573Y60284D02*
X202978Y60284D01*
X187460Y60357D02*
X203090Y60357D01*
X187348Y60431D02*
X203202Y60431D01*
X187236Y60505D02*
X203314Y60505D01*
X187124Y60579D02*
X203427Y60579D01*
X187022Y60653D02*
X203528Y60653D01*
X186934Y60727D02*
X203616Y60727D01*
X186846Y60800D02*
X203704Y60800D01*
X186758Y60874D02*
X203792Y60874D01*
X186670Y60948D02*
X203880Y60948D01*
X186582Y61022D02*
X203968Y61022D01*
X186494Y61096D02*
X204056Y61096D01*
X186406Y61169D02*
X204144Y61169D01*
X186318Y61243D02*
X204232Y61243D01*
X186230Y61317D02*
X204320Y61317D01*
X186142Y61391D02*
X204408Y61391D01*
X186054Y61465D02*
X204496Y61465D01*
X185966Y61539D02*
X204584Y61539D01*
X185878Y61612D02*
X204672Y61612D01*
X185800Y61686D02*
X204750Y61686D01*
X185730Y61760D02*
X204820Y61760D01*
X185661Y61834D02*
X204890Y61834D01*
X185591Y61908D02*
X204959Y61908D01*
X185521Y61981D02*
X205029Y61981D01*
X185452Y62055D02*
X205098Y62055D01*
X185382Y62129D02*
X205168Y62129D01*
X185312Y62203D02*
X205238Y62203D01*
X185243Y62277D02*
X205307Y62277D01*
X185173Y62351D02*
X205377Y62351D01*
X185104Y62424D02*
X205447Y62424D01*
X185034Y62498D02*
X205516Y62498D01*
X184964Y62572D02*
X205586Y62572D01*
X184895Y62646D02*
X205656Y62646D01*
X184825Y62720D02*
X205725Y62720D01*
X184755Y62793D02*
X205795Y62793D01*
X184697Y62867D02*
X205853Y62867D01*
X184642Y62941D02*
X205908Y62941D01*
X184587Y63015D02*
X205963Y63015D01*
X184532Y63089D02*
X206018Y63089D01*
X184477Y63163D02*
X206073Y63163D01*
X184422Y63236D02*
X206128Y63236D01*
X184367Y63310D02*
X206183Y63310D01*
X184312Y63384D02*
X206238Y63384D01*
X184257Y63458D02*
X206293Y63458D01*
X184202Y63532D02*
X206348Y63532D01*
X184147Y63605D02*
X206403Y63605D01*
X184092Y63679D02*
X206458Y63679D01*
X184037Y63753D02*
X206513Y63753D01*
X183982Y63827D02*
X206568Y63827D01*
X183927Y63901D02*
X206623Y63901D01*
X183872Y63975D02*
X206678Y63975D01*
X183817Y64048D02*
X206733Y64048D01*
X183767Y64122D02*
X206783Y64122D01*
X183724Y64196D02*
X206826Y64196D01*
X183682Y64270D02*
X206868Y64270D01*
X183639Y64344D02*
X206911Y64344D01*
X183597Y64417D02*
X206954Y64417D01*
X183554Y64491D02*
X206996Y64491D01*
X183511Y64565D02*
X207039Y64565D01*
X183469Y64639D02*
X207081Y64639D01*
X183426Y64713D02*
X207124Y64713D01*
X183384Y64787D02*
X207167Y64787D01*
X183341Y64860D02*
X207209Y64860D01*
X183298Y64934D02*
X207252Y64934D01*
X183256Y65008D02*
X207295Y65008D01*
X183213Y65082D02*
X207337Y65082D01*
X183170Y65156D02*
X207380Y65156D01*
X183128Y65229D02*
X207422Y65229D01*
X183085Y65303D02*
X207465Y65303D01*
X183043Y65377D02*
X207508Y65377D01*
X183000Y65451D02*
X207550Y65451D01*
X182964Y65525D02*
X207586Y65525D01*
X182932Y65599D02*
X207618Y65599D01*
X182900Y65672D02*
X207650Y65672D01*
X182868Y65746D02*
X207682Y65746D01*
X182837Y65820D02*
X207714Y65820D01*
X182805Y65894D02*
X207746Y65894D01*
X182773Y65968D02*
X207777Y65968D01*
X182741Y66041D02*
X207809Y66041D01*
X182709Y66115D02*
X207841Y66115D01*
X182677Y66189D02*
X207873Y66189D01*
X182645Y66263D02*
X207905Y66263D01*
X182614Y66337D02*
X207937Y66337D01*
X182582Y66411D02*
X207968Y66411D01*
X182550Y66484D02*
X208000Y66484D01*
X182518Y66558D02*
X208032Y66558D01*
X182486Y66632D02*
X208064Y66632D01*
X182454Y66706D02*
X208096Y66706D01*
X182423Y66780D02*
X208128Y66780D01*
X182391Y66853D02*
X208159Y66853D01*
X182359Y66927D02*
X208191Y66927D01*
X182334Y67001D02*
X208216Y67001D01*
X182312Y67075D02*
X208238Y67075D01*
X182290Y67149D02*
X208260Y67149D01*
X182268Y67223D02*
X208283Y67223D01*
X182246Y67296D02*
X208305Y67296D01*
X182223Y67370D02*
X208327Y67370D01*
X182201Y67444D02*
X208349Y67444D01*
X182179Y67518D02*
X208371Y67518D01*
X182157Y67592D02*
X208393Y67592D01*
X182135Y67665D02*
X208415Y67665D01*
X182113Y67739D02*
X208437Y67739D01*
X182091Y67813D02*
X208459Y67813D01*
X182069Y67887D02*
X208481Y67887D01*
X182047Y67961D02*
X208504Y67961D01*
X182025Y68035D02*
X208526Y68035D01*
X182002Y68108D02*
X208548Y68108D01*
X181980Y68182D02*
X208570Y68182D01*
X181958Y68256D02*
X208592Y68256D01*
X181936Y68330D02*
X208614Y68330D01*
X181914Y68404D02*
X208636Y68404D01*
X181892Y68477D02*
X208658Y68477D01*
X181879Y68551D02*
X208672Y68551D01*
X181866Y68625D02*
X208685Y68625D01*
X181852Y68699D02*
X208698Y68699D01*
X181839Y68773D02*
X208711Y68773D01*
X181826Y68847D02*
X208724Y68847D01*
X181813Y68920D02*
X208737Y68920D01*
X181800Y68994D02*
X208750Y68994D01*
X181787Y69068D02*
X208763Y69068D01*
X181774Y69142D02*
X208776Y69142D01*
X181761Y69216D02*
X208789Y69216D01*
X181748Y69290D02*
X208802Y69290D01*
X181735Y69363D02*
X208815Y69363D01*
X181722Y69437D02*
X208828Y69437D01*
X181709Y69511D02*
X208841Y69511D01*
X181696Y69585D02*
X208854Y69585D01*
X181683Y69659D02*
X208867Y69659D01*
X181670Y69732D02*
X208880Y69732D01*
X181657Y69806D02*
X208893Y69806D01*
X181644Y69880D02*
X208906Y69880D01*
X181631Y69954D02*
X208919Y69954D01*
X181618Y70028D02*
X208932Y70028D01*
X181611Y70102D02*
X208940Y70102D01*
X181606Y70175D02*
X208944Y70175D01*
X181602Y70249D02*
X208948Y70249D01*
X181598Y70323D02*
X208953Y70323D01*
X181593Y70397D02*
X208957Y70397D01*
X181589Y70471D02*
X208961Y70471D01*
X181585Y70544D02*
X208965Y70544D01*
X181580Y70618D02*
X208970Y70618D01*
X181576Y70692D02*
X208974Y70692D01*
X181572Y70766D02*
X208978Y70766D01*
X181568Y70840D02*
X208983Y70840D01*
X181563Y70914D02*
X208987Y70914D01*
X181559Y70987D02*
X208991Y70987D01*
X181555Y71061D02*
X208996Y71061D01*
X181550Y71135D02*
X209000Y71135D01*
X181546Y71209D02*
X209004Y71209D01*
X181542Y71283D02*
X209008Y71283D01*
X181537Y71356D02*
X209013Y71356D01*
X181533Y71430D02*
X209017Y71430D01*
X181529Y71504D02*
X209021Y71504D01*
X181525Y71578D02*
X209026Y71578D01*
X181520Y71652D02*
X209030Y71652D01*
X181524Y71726D02*
X209026Y71726D01*
X181529Y71799D02*
X209021Y71799D01*
X181533Y71873D02*
X209017Y71873D01*
X181537Y71947D02*
X209013Y71947D01*
X181542Y72021D02*
X209009Y72021D01*
X181546Y72095D02*
X209004Y72095D01*
X181550Y72168D02*
X209000Y72168D01*
X181554Y72242D02*
X208996Y72242D01*
X181559Y72316D02*
X208991Y72316D01*
X181563Y72390D02*
X208987Y72390D01*
X181567Y72464D02*
X208983Y72464D01*
X181572Y72538D02*
X208978Y72538D01*
X181576Y72611D02*
X208974Y72611D01*
X181580Y72685D02*
X208970Y72685D01*
X181585Y72759D02*
X208966Y72759D01*
X181589Y72833D02*
X208961Y72833D01*
X181593Y72907D02*
X208957Y72907D01*
X181597Y72980D02*
X208953Y72980D01*
X181602Y73054D02*
X208948Y73054D01*
X181606Y73128D02*
X208944Y73128D01*
X181610Y73202D02*
X208940Y73202D01*
X181618Y73276D02*
X208932Y73276D01*
X181631Y73350D02*
X208919Y73350D01*
X181644Y73423D02*
X208906Y73423D01*
X181657Y73497D02*
X208893Y73497D01*
X181670Y73571D02*
X208880Y73571D01*
X181683Y73645D02*
X208867Y73645D01*
X181696Y73719D02*
X208854Y73719D01*
X181709Y73792D02*
X208841Y73792D01*
X181722Y73866D02*
X208828Y73866D01*
X181735Y73940D02*
X208815Y73940D01*
X181748Y74014D02*
X208802Y74014D01*
X181761Y74088D02*
X208789Y74088D01*
X181774Y74162D02*
X208776Y74162D01*
X181787Y74235D02*
X208763Y74235D01*
X181800Y74309D02*
X208750Y74309D01*
X181813Y74383D02*
X208737Y74383D01*
X181826Y74457D02*
X208724Y74457D01*
X181839Y74531D02*
X208711Y74531D01*
X181852Y74604D02*
X208698Y74604D01*
X181865Y74678D02*
X208685Y74678D01*
X181878Y74752D02*
X208672Y74752D01*
X181891Y74826D02*
X208659Y74826D01*
X181913Y74900D02*
X208637Y74900D01*
X181935Y74974D02*
X208615Y74974D01*
X181957Y75047D02*
X208593Y75047D01*
X181980Y75121D02*
X208571Y75121D01*
X182002Y75195D02*
X208549Y75195D01*
X182024Y75269D02*
X208526Y75269D01*
X182046Y75343D02*
X208504Y75343D01*
X182068Y75416D02*
X208482Y75416D01*
X182090Y75490D02*
X208460Y75490D01*
X182112Y75564D02*
X208438Y75564D01*
X182134Y75638D02*
X208416Y75638D01*
X182156Y75712D02*
X208394Y75712D01*
X182178Y75786D02*
X208372Y75786D01*
X182201Y75859D02*
X208350Y75859D01*
X182223Y75933D02*
X208328Y75933D01*
X182245Y76007D02*
X208305Y76007D01*
X182267Y76081D02*
X208283Y76081D01*
X182289Y76155D02*
X208261Y76155D01*
X182311Y76228D02*
X208239Y76228D01*
X182333Y76302D02*
X208217Y76302D01*
X182358Y76376D02*
X208192Y76376D01*
X182390Y76450D02*
X208161Y76450D01*
X182421Y76524D02*
X208129Y76524D01*
X182453Y76598D02*
X208097Y76598D01*
X182485Y76671D02*
X208065Y76671D01*
X182517Y76745D02*
X208033Y76745D01*
X182549Y76819D02*
X208001Y76819D01*
X182581Y76893D02*
X207970Y76893D01*
X182612Y76967D02*
X207938Y76967D01*
X182644Y77040D02*
X207906Y77040D01*
X182676Y77114D02*
X207874Y77114D01*
X182708Y77188D02*
X207842Y77188D01*
X182740Y77262D02*
X207810Y77262D01*
X182772Y77336D02*
X207779Y77336D01*
X182804Y77410D02*
X207747Y77410D01*
X182835Y77483D02*
X207715Y77483D01*
X182867Y77557D02*
X207683Y77557D01*
X182899Y77631D02*
X207651Y77631D01*
X182931Y77705D02*
X207619Y77705D01*
X182963Y77779D02*
X207587Y77779D01*
X182998Y77852D02*
X207552Y77852D01*
X183041Y77926D02*
X207509Y77926D01*
X183084Y78000D02*
X207467Y78000D01*
X183126Y78074D02*
X207424Y78074D01*
X183169Y78148D02*
X207381Y78148D01*
X183212Y78222D02*
X207339Y78222D01*
X183254Y78295D02*
X207296Y78295D01*
X183297Y78369D02*
X207253Y78369D01*
X183339Y78443D02*
X207211Y78443D01*
X183382Y78517D02*
X207168Y78517D01*
X183425Y78591D02*
X207126Y78591D01*
X183467Y78665D02*
X207083Y78665D01*
X183510Y78738D02*
X207040Y78738D01*
X183552Y78812D02*
X206998Y78812D01*
X183595Y78886D02*
X206955Y78886D01*
X183638Y78960D02*
X206912Y78960D01*
X183680Y79034D02*
X206870Y79034D01*
X183723Y79107D02*
X206827Y79107D01*
X183766Y79181D02*
X206785Y79181D01*
X183815Y79255D02*
X206735Y79255D01*
X183870Y79329D02*
X206680Y79329D01*
X183925Y79403D02*
X206625Y79403D01*
X183980Y79477D02*
X206570Y79477D01*
X184035Y79550D02*
X206515Y79550D01*
X184090Y79624D02*
X206460Y79624D01*
X184145Y79698D02*
X206405Y79698D01*
X184200Y79772D02*
X206350Y79772D01*
X184255Y79846D02*
X206295Y79846D01*
X184310Y79919D02*
X206240Y79919D01*
X184365Y79993D02*
X206185Y79993D01*
X184420Y80067D02*
X206130Y80067D01*
X184475Y80141D02*
X206075Y80141D01*
X184530Y80215D02*
X206020Y80215D01*
X184585Y80289D02*
X205965Y80289D01*
X184640Y80362D02*
X205910Y80362D01*
X184695Y80436D02*
X205855Y80436D01*
X184753Y80510D02*
X205797Y80510D01*
X184822Y80584D02*
X205728Y80584D01*
X184892Y80658D02*
X205658Y80658D01*
X184962Y80731D02*
X205588Y80731D01*
X185031Y80805D02*
X205519Y80805D01*
X185101Y80879D02*
X205449Y80879D01*
X185171Y80953D02*
X205380Y80953D01*
X185240Y81027D02*
X205310Y81027D01*
X185310Y81101D02*
X205240Y81101D01*
X185380Y81174D02*
X205171Y81174D01*
X185449Y81248D02*
X205101Y81248D01*
X185519Y81322D02*
X205031Y81322D01*
X185589Y81396D02*
X204962Y81396D01*
X185658Y81470D02*
X204892Y81470D01*
X185728Y81543D02*
X204822Y81543D01*
X185797Y81617D02*
X204753Y81617D01*
X185875Y81691D02*
X204675Y81691D01*
X185963Y81765D02*
X204587Y81765D01*
X186051Y81839D02*
X204499Y81839D01*
X186139Y81913D02*
X204411Y81913D01*
X186227Y81986D02*
X204323Y81986D01*
X186315Y82060D02*
X204235Y82060D01*
X186403Y82134D02*
X204147Y82134D01*
X186491Y82208D02*
X204059Y82208D01*
X186579Y82282D02*
X203971Y82282D01*
X186667Y82355D02*
X203883Y82355D01*
X186755Y82429D02*
X203795Y82429D01*
X186843Y82503D02*
X203707Y82503D01*
X186931Y82577D02*
X203619Y82577D01*
X187019Y82651D02*
X203531Y82651D01*
X187120Y82725D02*
X203431Y82725D01*
X187232Y82798D02*
X203318Y82798D01*
X187344Y82872D02*
X203206Y82872D01*
X187456Y82946D02*
X203094Y82946D01*
X187568Y83020D02*
X202982Y83020D01*
X187681Y83094D02*
X202869Y83094D01*
X187793Y83167D02*
X202757Y83167D01*
X187905Y83241D02*
X202645Y83241D01*
X188017Y83315D02*
X202533Y83315D01*
X188130Y83389D02*
X202421Y83389D01*
X188242Y83463D02*
X202308Y83463D01*
X188354Y83537D02*
X202196Y83537D01*
X188488Y83610D02*
X202063Y83610D01*
X188635Y83684D02*
X201916Y83684D01*
X188782Y83758D02*
X201769Y83758D01*
X188929Y83832D02*
X201622Y83832D01*
X189076Y83906D02*
X201475Y83906D01*
X189223Y83979D02*
X201328Y83979D01*
X189370Y84053D02*
X201181Y84053D01*
X189517Y84127D02*
X201034Y84127D01*
X189664Y84201D02*
X200887Y84201D01*
X189811Y84275D02*
X200740Y84275D01*
X190007Y84349D02*
X200543Y84349D01*
X190210Y84422D02*
X200340Y84422D01*
X190413Y84496D02*
X200137Y84496D01*
X190616Y84570D02*
X199935Y84570D01*
X190818Y84644D02*
X199732Y84644D01*
X191021Y84718D02*
X199529Y84718D01*
X191224Y84791D02*
X199326Y84791D01*
X191479Y84865D02*
X199072Y84865D01*
X191790Y84939D02*
X198760Y84939D01*
X192101Y85013D02*
X198449Y85013D01*
X192413Y85087D02*
X198137Y85087D01*
X192724Y85161D02*
X197826Y85161D01*
X193189Y85234D02*
X197361Y85234D01*
X193821Y85308D02*
X196729Y85308D01*
X194452Y85382D02*
X196098Y85382D01*
G54D14*
X3937Y141732D02*
X3937Y146456D01*
X3937Y144094D02*
X8267Y144094D01*
X8267Y146456D02*
X8267Y141732D01*
X3937Y146456D02*
X6102Y148818D01*
X8267Y146456D01*
X9566Y148818D02*
X9566Y141732D01*
X9566Y144094D02*
X12814Y147637D01*
X11190Y145866D02*
X13897Y141732D01*
X15196Y148818D02*
X15196Y142913D01*
X16279Y141732D01*
X19527Y141732D01*
X15196Y145866D02*
X17362Y145866D01*
X20826Y145866D02*
X20826Y142913D01*
X21909Y141732D01*
X24074Y141732D01*
X25157Y142913D01*
X25157Y145866D02*
X25157Y141732D01*
X30787Y142322D02*
X29704Y141732D01*
X27539Y141732D01*
X26456Y142913D01*
X26456Y144685D01*
X27539Y145866D01*
X29704Y145866D01*
X30787Y145275D01*
X30787Y144685D01*
X29704Y144094D01*
X26456Y144094D01*
X32086Y141732D02*
X36417Y141732D01*
X33169Y148818D02*
X34251Y148818D01*
X34251Y141732D01*
X37716Y141732D02*
X42047Y141732D01*
X38799Y148818D02*
X39881Y148818D01*
X39881Y141732D01*
X47677Y142322D02*
X46594Y141732D01*
X44429Y141732D01*
X43346Y142913D01*
X43346Y144685D01*
X44429Y145866D01*
X46594Y145866D01*
X47677Y145275D01*
X47677Y144685D01*
X46594Y144094D01*
X43346Y144094D01*
X48976Y141732D02*
X52765Y141732D01*
X53307Y142913D01*
X52765Y144094D01*
X49517Y144094D01*
X48976Y145275D01*
X49517Y145866D01*
X53307Y145866D01*
X60236Y148818D02*
X60236Y141732D01*
X60236Y145275D02*
X62942Y145275D01*
X64025Y145866D01*
X64566Y147047D01*
X64025Y148228D01*
X62942Y148818D01*
X60236Y148818D01*
X65866Y145866D02*
X65866Y141732D01*
X65866Y144094D02*
X67490Y145866D01*
X70196Y145866D01*
X71496Y144685D02*
X71496Y142913D01*
X71496Y144685D02*
X72578Y145866D01*
X74744Y145866D01*
X75826Y144685D01*
X75826Y142913D01*
X74744Y141732D01*
X72578Y141732D01*
X71496Y142913D01*
X77125Y139370D02*
X80374Y139370D01*
X81456Y140551D01*
X81456Y145866D01*
X79832Y145866D01*
X81456Y148818D02*
X81456Y148228D01*
X87086Y142322D02*
X86003Y141732D01*
X83838Y141732D01*
X82755Y142913D01*
X82755Y144685D01*
X83838Y145866D01*
X86003Y145866D01*
X87086Y145275D01*
X87086Y144685D01*
X86003Y144094D01*
X82755Y144094D01*
X88385Y148818D02*
X88385Y141732D01*
X88385Y144094D02*
X91633Y147637D01*
X90009Y145866D02*
X92716Y141732D01*
X94015Y148818D02*
X94015Y142913D01*
X95098Y141732D01*
X98346Y141732D01*
X94015Y145866D02*
X96181Y145866D01*
X105275Y145866D02*
X107440Y141732D01*
X109606Y145866D01*
X110905Y144685D02*
X110905Y142913D01*
X110905Y144685D02*
X111988Y145866D01*
X114153Y145866D01*
X115236Y144685D01*
X115236Y142913D01*
X114153Y141732D01*
X111988Y141732D01*
X110905Y142913D01*
X116535Y141732D02*
X116535Y145866D01*
X116535Y144685D02*
X117618Y145866D01*
X119783Y145866D01*
X120866Y144685D01*
X120866Y141732D01*
X127795Y148818D02*
X132125Y148818D01*
X129960Y148818D02*
X129960Y141732D01*
X133425Y141732D02*
X133425Y146456D01*
X133425Y144094D02*
X137755Y144094D01*
X137755Y146456D02*
X137755Y141732D01*
X133425Y146456D02*
X135590Y148818D01*
X137755Y146456D01*
X139055Y148818D02*
X139055Y141732D01*
X139055Y145275D02*
X141761Y145275D01*
X142844Y145866D01*
X143385Y147047D01*
X142844Y148228D01*
X141761Y148818D01*
X139055Y148818D01*
X141220Y145275D02*
X143385Y141732D01*
X146309Y148818D02*
X145226Y148228D01*
X144685Y147047D01*
X144685Y143503D01*
X145226Y142322D01*
X146309Y141732D01*
X147391Y141732D01*
X148474Y142322D01*
X149015Y143503D01*
X149015Y145275D01*
X147933Y145275D01*
X146309Y148818D02*
X147391Y148818D01*
X148474Y148228D01*
X150314Y148818D02*
X150314Y141732D01*
X154645Y141732D01*
X150314Y145275D02*
X152480Y145275D01*
X150314Y148818D02*
X154645Y148818D01*
X155944Y148818D02*
X160275Y148818D01*
X158110Y148818D02*
X158110Y141732D01*
X167204Y141732D02*
X167204Y148818D01*
X171535Y141732D01*
X171535Y148818D01*
X175541Y141732D02*
X176624Y142322D01*
X177165Y143503D01*
X175541Y141732D02*
X174458Y141732D01*
X173375Y142322D01*
X172834Y143503D01*
X172834Y147047D01*
X173375Y148228D01*
X174458Y148818D01*
X175541Y148818D01*
X176624Y148228D01*
X177165Y147047D01*
X178464Y145275D02*
X182795Y145275D01*
X184094Y148818D02*
X184094Y141732D01*
X188425Y141732D01*
X184094Y145275D02*
X186259Y145275D01*
X184094Y148818D02*
X188425Y148818D01*
X194055Y148818D02*
X194055Y141732D01*
X190807Y141732D01*
X189724Y142913D01*
X189724Y144685D01*
X190807Y145866D01*
X194055Y145866D01*
X195354Y141732D02*
X199685Y141732D01*
X197519Y141732D02*
X197519Y145866D01*
X197519Y148818D02*
X197519Y148228D01*
X195895Y145866D02*
X197519Y145866D01*
X200984Y148818D02*
X200984Y142913D01*
X202066Y141732D01*
X205314Y141732D01*
X200984Y145866D02*
X203149Y145866D01*
X206614Y141732D02*
X210944Y141732D01*
X208779Y141732D02*
X208779Y145866D01*
X208779Y148818D02*
X208779Y148228D01*
X207155Y145866D02*
X208779Y145866D01*
X212244Y144685D02*
X212244Y142913D01*
X212244Y144685D02*
X213326Y145866D01*
X215492Y145866D01*
X216574Y144685D01*
X216574Y142913D01*
X215492Y141732D01*
X213326Y141732D01*
X212244Y142913D01*
X217874Y141732D02*
X217874Y145866D01*
X217874Y144685D02*
X218956Y145866D01*
X221122Y145866D01*
X222204Y144685D01*
X222204Y141732D01*
X224586Y142322D02*
X224586Y141732D01*
X225127Y141732D01*
X225127Y142322D01*
X224586Y142322D01*
X225127Y145275D02*
X224586Y145275D01*
X224586Y144685D01*
X225127Y144685D01*
X225127Y145275D01*
X234763Y148818D02*
X234763Y141732D01*
X234763Y144094D02*
X239094Y148818D01*
X236387Y145866D02*
X239094Y141732D01*
X240393Y144685D02*
X240393Y142913D01*
X240393Y144685D02*
X241476Y145866D01*
X243641Y145866D01*
X244724Y144685D01*
X244724Y142913D01*
X243641Y141732D01*
X241476Y141732D01*
X240393Y142913D01*
X250354Y141732D02*
X250354Y144685D01*
X249271Y145866D01*
X248188Y141732D02*
X248188Y144685D01*
X246023Y145866D02*
X249271Y145866D01*
X246023Y141732D02*
X246023Y145866D01*
X248188Y144685D02*
X247106Y145866D01*
X255984Y141732D02*
X255984Y144685D01*
X254901Y145866D01*
X253818Y141732D02*
X253818Y144685D01*
X251653Y145866D02*
X254901Y145866D01*
X251653Y141732D02*
X251653Y145866D01*
X253818Y144685D02*
X252736Y145866D01*
X261614Y142322D02*
X260531Y141732D01*
X258366Y141732D01*
X257283Y142913D01*
X257283Y144685D01*
X258366Y145866D01*
X260531Y145866D01*
X261614Y145275D01*
X261614Y144685D01*
X260531Y144094D01*
X257283Y144094D01*
X262913Y145866D02*
X262913Y141732D01*
X262913Y144094D02*
X264537Y145866D01*
X267244Y145866D01*
X268543Y145866D02*
X272874Y145866D01*
X268543Y141732D01*
X272874Y141732D01*
X274173Y141732D02*
X278503Y141732D01*
X276338Y141732D02*
X276338Y145866D01*
X276338Y148818D02*
X276338Y148228D01*
X274714Y145866D02*
X276338Y145866D01*
X284133Y142322D02*
X283051Y141732D01*
X280885Y141732D01*
X279803Y142913D01*
X279803Y144685D01*
X280885Y145866D01*
X283051Y145866D01*
X284133Y145275D01*
X284133Y144685D01*
X283051Y144094D01*
X279803Y144094D01*
X285433Y141732D02*
X289763Y141732D01*
X286515Y148818D02*
X287598Y148818D01*
X287598Y141732D01*
X291062Y141732D02*
X295393Y141732D01*
X292145Y148818D02*
X293228Y148818D01*
X293228Y141732D01*
X301023Y142322D02*
X299940Y141732D01*
X297775Y141732D01*
X296692Y142913D01*
X296692Y144685D01*
X297775Y145866D01*
X299940Y145866D01*
X301023Y145275D01*
X301023Y144685D01*
X299940Y144094D01*
X296692Y144094D01*
X307952Y141732D02*
X307952Y148818D01*
X312283Y141732D01*
X312283Y148818D01*
X313582Y145866D02*
X313582Y142913D01*
X314665Y141732D01*
X316830Y141732D01*
X317913Y142913D01*
X317913Y145866D02*
X317913Y141732D01*
X319212Y148818D02*
X319212Y142913D01*
X320295Y141732D01*
X323543Y141732D01*
X319212Y145866D02*
X321377Y145866D01*
X324842Y145866D02*
X329173Y145866D01*
X324842Y141732D01*
X329173Y141732D01*
X330472Y145866D02*
X330472Y142913D01*
X331555Y141732D01*
X333720Y141732D01*
X334803Y142913D01*
X334803Y145866D02*
X334803Y141732D01*
X336102Y141732D02*
X336102Y145866D01*
X336102Y144685D02*
X337185Y145866D01*
X339350Y145866D01*
X340433Y144685D01*
X340433Y141732D01*
X346062Y142913D02*
X344980Y141732D01*
X342814Y141732D01*
X341732Y142913D01*
X341732Y144685D01*
X342814Y145866D01*
X344980Y145866D01*
X346062Y144685D01*
X346062Y140551D01*
X344980Y139370D01*
X341732Y139370D01*
X352992Y141732D02*
X357322Y141732D01*
X355157Y141732D02*
X355157Y145866D01*
X355157Y148818D02*
X355157Y148228D01*
X353533Y145866D02*
X355157Y145866D01*
X358622Y141732D02*
X362411Y141732D01*
X362952Y142913D01*
X362411Y144094D01*
X359163Y144094D01*
X358622Y145275D01*
X359163Y145866D01*
X362952Y145866D01*
X364251Y148818D02*
X364251Y142913D01*
X365334Y141732D01*
X368582Y141732D01*
X364251Y145866D02*
X366417Y145866D01*
X375511Y141732D02*
X379301Y141732D01*
X379842Y142913D01*
X379301Y144094D01*
X376053Y144094D01*
X375511Y145275D01*
X376053Y145866D01*
X379842Y145866D01*
X381141Y148818D02*
X381141Y142913D01*
X382224Y141732D01*
X385472Y141732D01*
X381141Y145866D02*
X383307Y145866D01*
X386771Y145866D02*
X386771Y141732D01*
X386771Y144094D02*
X388395Y145866D01*
X391102Y145866D01*
X392401Y142913D02*
X393484Y141732D01*
X395649Y141732D01*
X396732Y142913D01*
X392401Y142913D02*
X392401Y144685D01*
X393484Y145866D01*
X395649Y145866D01*
X396732Y144685D01*
X396732Y141732D01*
X398031Y139370D02*
X398031Y147637D01*
X399114Y148818D01*
X402362Y148818D01*
X398031Y144094D02*
X400196Y144094D01*
X403661Y148818D02*
X403661Y141732D01*
X406909Y141732D01*
X407992Y142913D01*
X407992Y144685D01*
X406909Y145866D01*
X403661Y145866D01*
X409291Y142913D02*
X410374Y141732D01*
X412539Y141732D01*
X413622Y142913D01*
X409291Y142913D02*
X409291Y144685D01*
X410374Y145866D01*
X412539Y145866D01*
X413622Y144685D01*
X413622Y141732D01*
X414921Y145866D02*
X414921Y141732D01*
X414921Y144094D02*
X416545Y145866D01*
X419251Y145866D01*
X422716Y141732D02*
X422716Y142322D01*
X423257Y142322D01*
X423257Y141732D01*
X422716Y141732D01*
X422716Y144094D02*
X423257Y144094D01*
X423799Y147637D01*
X423257Y148818D01*
X422716Y148818D01*
X422175Y147637D01*
X422716Y144094D01*
G54D22*
X211525Y114896D03*
G54D24*
X187165Y37401D03*
X204173Y37401D03*
X156062Y37401D03*
X173070Y37401D03*
G54D25*
X123228Y115748D03*
X123228Y97637D03*
G54D26*
X195669Y29153D03*
X195669Y45649D03*
X164566Y29153D03*
X164566Y45649D03*
G54D29*
X149606Y106692D03*
G54D30*
X52456Y37401D03*
X64267Y37401D03*
X108748Y37401D03*
X120559Y37401D03*
G54D31*
X58362Y38283D03*
X114653Y38283D03*
G54D32*
X58362Y47874D03*
X114653Y47874D03*
G54D33*
X88708Y81500D03*
X77291Y81500D03*
X141850Y81500D03*
X130433Y81500D03*
G54D34*
X17000Y34708D03*
X17000Y23291D03*
G54D35*
X98622Y97637D03*
X110039Y97637D03*
X30283Y37401D03*
X41700Y37401D03*
X77291Y71000D03*
X88708Y71000D03*
X77291Y60500D03*
X88708Y60500D03*
X130433Y71000D03*
X141850Y71000D03*
X130433Y60500D03*
X141850Y60500D03*
X98622Y115748D03*
X110039Y115748D03*
G54D36*
X17000Y39791D03*
X17000Y51208D03*
G54D37*
X78665Y37401D03*
X78665Y50078D03*
X88665Y50078D03*
X88665Y37401D03*
X131807Y37401D03*
X131807Y50078D03*
X141807Y50078D03*
X141807Y37401D03*
G36*
X232283Y41338D02*
X232283Y33464D01*
X212598Y33464D01*
X212598Y41338D01*
X232283Y41338D01*
G37*
M02*
