M48
METRIC
T1F00S00C0.300
T2F00S00C3.200
%
M71
G05
T1
X24.8738Y7.6604
X26.8738Y7.6604
X28.8738Y7.6604
X30.8738Y7.6604
X2.8738Y7.6604
X4.8738Y7.6604
X6.8738Y7.6604
X8.8738Y7.6604
X10.8738Y7.6604
X12.8738Y7.6604
X14.8738Y7.6604
X16.8738Y7.6604
X18.8738Y7.6604
X20.8738Y7.6604
X22.8738Y7.6604
X1.0738Y7.6604
X2.8738Y11.3116
X4.8738Y11.3116
X6.8738Y11.3116
X8.8738Y11.3116
X10.8738Y11.3116
X12.8738Y11.3116
X14.8738Y11.3116
X16.8738Y11.3116
X18.8738Y11.3116
X1.0738Y11.3116
X56.6238Y7.6604
X34.6238Y7.6604
X36.6238Y7.6604
X38.6238Y7.6604
X40.6238Y7.6604
X42.6238Y7.6604
X44.6238Y7.6604
X46.6238Y7.6604
X48.6238Y7.6604
X50.6238Y7.6604
X52.6238Y7.6604
X54.6238Y7.6604
X32.8238Y7.6604
X56.6238Y11.3116
X50.6238Y11.3116
X52.6238Y11.3116
X54.6238Y11.3116
X51.6638Y26.3254
X53.6638Y26.3254
X55.6638Y26.3254
X57.6638Y26.3254
X24.4638Y32.4254
X26.4638Y32.4254
X28.4638Y32.4254
X30.4638Y32.4254
X32.4638Y32.4254
X34.4638Y32.4254
X36.4638Y32.4254
X38.4638Y32.4254
X40.4638Y32.4254
X42.4638Y32.4254
X49.6638Y26.3254
X22.6638Y32.4254
X36.9718Y11.3116
X38.9718Y11.3116
X40.9718Y11.3116
X2.3038Y4.5104
X4.3038Y4.5104
X6.3038Y4.5104
X2.3038Y14.3804
X4.3038Y14.3804
X6.3038Y14.3804
X31.8296Y15.4238
X31.8296Y17.4238
X18.3796Y13.4238
X18.3796Y15.4238
X18.3796Y17.4238
X24.9738Y11.2604
X26.9738Y11.2604
X28.9738Y11.2604
X30.9738Y11.2604
X34.7238Y11.2604
X32.9238Y11.2604
X46.6238Y11.2604
X48.6238Y11.2604
X42.6238Y11.2604
X44.6238Y11.2604
T2
X9.6000Y18.2000
X49.6000Y18.2000
M30
