%FSLAX35Y35*%
%MOIN*%
%TF.FileFunction,Copper,L1,Top*%
%ADD10C,0.00098*%
%ADD11C,0.00394*%
%ADD12C,0.00512*%
%ADD13C,0.00591*%
%ADD14C,0.00650*%
%ADD15C,0.00787*%
%ADD16C,0.01024*%
%ADD17C,0.01181*%
%ADD18C,0.02756*%
%ADD19C,0.03150*%
%ADD20C,0.03937*%
%ADD21C,0.12598*%
%ADD22C,0.15748*%
%AMR_23*21,1,0.05906,0.05906,0,0,0.000*%
%ADD23R_23*%
%AMR_24*21,1,0.05984,0.05984,0,0,90.000*%
%ADD24R_24*%
%AMR_25*21,1,0.06299,0.11811,0,0,270.000*%
%ADD25R_25*%
%AMR_26*21,1,0.06496,0.07992,0,0,90.000*%
%ADD26R_26*%
%AMR_27*21,1,0.19685,0.07874,0,0,0.000*%
%ADD27R_27*%
%AMR_28*21,1,0.19685,0.19685,0,0,0.000*%
%ADD28R_28*%
%AMR_29*21,1,0.26378,0.26378,0,0,270.000*%
%ADD29R_29*%
%ADD30O,0.03150X0.06693*%
%ADD31O,0.03150X0.08661*%
%ADD32O,0.08661X0.15748*%
%AMRR_33*21,1,0.03543,0.05591,0,0,0.000*21,1,0.02835,0.06299,0,0,0.000*1,1,0.00709,0.01417,0.02795*1,1,0.00709,-0.01417,-0.02795*1,1,0.00709,0.01417,-0.02795*1,1,0.00709,-0.01417,0.02795*%
%ADD33RR_33*%
%AMRR_34*21,1,0.03543,0.05591,0,0,90.000*21,1,0.02835,0.06299,0,0,90.000*1,1,0.00709,-0.02795,0.01417*1,1,0.00709,0.02795,-0.01417*1,1,0.00709,0.02795,0.01417*1,1,0.00709,-0.02795,-0.01417*%
%ADD34RR_34*%
%AMRR_35*21,1,0.03543,0.05591,0,0,180.000*21,1,0.02835,0.06299,0,0,180.000*1,1,0.00709,-0.01417,-0.02795*1,1,0.00709,0.01417,0.02795*1,1,0.00709,-0.01417,0.02795*1,1,0.00709,0.01417,-0.02795*%
%ADD35RR_35*%
%AMRR_36*21,1,0.03543,0.05591,0,0,270.000*21,1,0.02835,0.06299,0,0,270.000*1,1,0.00709,0.02795,-0.01417*1,1,0.00709,-0.02795,0.01417*1,1,0.00709,-0.02795,-0.01417*1,1,0.00709,0.02795,0.01417*%
%ADD36RR_36*%
%AMRR_37*21,1,0.06614,0.02488,0,0,90.000*21,1,0.05992,0.03110,0,0,90.000*1,1,0.00622,-0.01244,0.02996*1,1,0.00622,0.01244,-0.02996*1,1,0.00622,0.01244,0.02996*1,1,0.00622,-0.01244,-0.02996*%
%ADD37RR_37*%
G54D14*
X3937Y141732D02*
X3937Y146456D01*
X3937Y144094D02*
X8267Y144094D01*
X8267Y146456D02*
X8267Y141732D01*
X3937Y146456D02*
X6102Y148818D01*
X8267Y146456D01*
X9566Y148818D02*
X9566Y141732D01*
X9566Y144094D02*
X12814Y147637D01*
X11190Y145866D02*
X13897Y141732D01*
X15196Y148818D02*
X15196Y142913D01*
X16279Y141732D01*
X19527Y141732D01*
X15196Y145866D02*
X17362Y145866D01*
X20826Y145866D02*
X20826Y142913D01*
X21909Y141732D01*
X24074Y141732D01*
X25157Y142913D01*
X25157Y145866D02*
X25157Y141732D01*
X30787Y142322D02*
X29704Y141732D01*
X27539Y141732D01*
X26456Y142913D01*
X26456Y144685D01*
X27539Y145866D01*
X29704Y145866D01*
X30787Y145275D01*
X30787Y144685D01*
X29704Y144094D01*
X26456Y144094D01*
X32086Y141732D02*
X36417Y141732D01*
X33169Y148818D02*
X34251Y148818D01*
X34251Y141732D01*
X37716Y141732D02*
X42047Y141732D01*
X38799Y148818D02*
X39881Y148818D01*
X39881Y141732D01*
X47677Y142322D02*
X46594Y141732D01*
X44429Y141732D01*
X43346Y142913D01*
X43346Y144685D01*
X44429Y145866D01*
X46594Y145866D01*
X47677Y145275D01*
X47677Y144685D01*
X46594Y144094D01*
X43346Y144094D01*
X48976Y141732D02*
X52765Y141732D01*
X53307Y142913D01*
X52765Y144094D01*
X49517Y144094D01*
X48976Y145275D01*
X49517Y145866D01*
X53307Y145866D01*
X60236Y148818D02*
X60236Y141732D01*
X60236Y145275D02*
X62942Y145275D01*
X64025Y145866D01*
X64566Y147047D01*
X64025Y148228D01*
X62942Y148818D01*
X60236Y148818D01*
X65866Y145866D02*
X65866Y141732D01*
X65866Y144094D02*
X67490Y145866D01*
X70196Y145866D01*
X71496Y144685D02*
X71496Y142913D01*
X71496Y144685D02*
X72578Y145866D01*
X74744Y145866D01*
X75826Y144685D01*
X75826Y142913D01*
X74744Y141732D01*
X72578Y141732D01*
X71496Y142913D01*
X77125Y139370D02*
X80374Y139370D01*
X81456Y140551D01*
X81456Y145866D01*
X79832Y145866D01*
X81456Y148818D02*
X81456Y148228D01*
X87086Y142322D02*
X86003Y141732D01*
X83838Y141732D01*
X82755Y142913D01*
X82755Y144685D01*
X83838Y145866D01*
X86003Y145866D01*
X87086Y145275D01*
X87086Y144685D01*
X86003Y144094D01*
X82755Y144094D01*
X88385Y148818D02*
X88385Y141732D01*
X88385Y144094D02*
X91633Y147637D01*
X90009Y145866D02*
X92716Y141732D01*
X94015Y148818D02*
X94015Y142913D01*
X95098Y141732D01*
X98346Y141732D01*
X94015Y145866D02*
X96181Y145866D01*
X105275Y145866D02*
X107440Y141732D01*
X109606Y145866D01*
X110905Y144685D02*
X110905Y142913D01*
X110905Y144685D02*
X111988Y145866D01*
X114153Y145866D01*
X115236Y144685D01*
X115236Y142913D01*
X114153Y141732D01*
X111988Y141732D01*
X110905Y142913D01*
X116535Y141732D02*
X116535Y145866D01*
X116535Y144685D02*
X117618Y145866D01*
X119783Y145866D01*
X120866Y144685D01*
X120866Y141732D01*
X127795Y148818D02*
X132125Y148818D01*
X129960Y148818D02*
X129960Y141732D01*
X133425Y141732D02*
X133425Y146456D01*
X133425Y144094D02*
X137755Y144094D01*
X137755Y146456D02*
X137755Y141732D01*
X133425Y146456D02*
X135590Y148818D01*
X137755Y146456D01*
X139055Y148818D02*
X139055Y141732D01*
X139055Y145275D02*
X141761Y145275D01*
X142844Y145866D01*
X143385Y147047D01*
X142844Y148228D01*
X141761Y148818D01*
X139055Y148818D01*
X141220Y145275D02*
X143385Y141732D01*
X146309Y148818D02*
X145226Y148228D01*
X144685Y147047D01*
X144685Y143503D01*
X145226Y142322D01*
X146309Y141732D01*
X147391Y141732D01*
X148474Y142322D01*
X149015Y143503D01*
X149015Y145275D01*
X147933Y145275D01*
X146309Y148818D02*
X147391Y148818D01*
X148474Y148228D01*
X150314Y148818D02*
X150314Y141732D01*
X154645Y141732D01*
X150314Y145275D02*
X152480Y145275D01*
X150314Y148818D02*
X154645Y148818D01*
X155944Y148818D02*
X160275Y148818D01*
X158110Y148818D02*
X158110Y141732D01*
X167204Y141732D02*
X167204Y148818D01*
X171535Y141732D01*
X171535Y148818D01*
X175541Y141732D02*
X176624Y142322D01*
X177165Y143503D01*
X175541Y141732D02*
X174458Y141732D01*
X173375Y142322D01*
X172834Y143503D01*
X172834Y147047D01*
X173375Y148228D01*
X174458Y148818D01*
X175541Y148818D01*
X176624Y148228D01*
X177165Y147047D01*
X178464Y145275D02*
X182795Y145275D01*
X184094Y148818D02*
X184094Y141732D01*
X188425Y141732D01*
X184094Y145275D02*
X186259Y145275D01*
X184094Y148818D02*
X188425Y148818D01*
X194055Y148818D02*
X194055Y141732D01*
X190807Y141732D01*
X189724Y142913D01*
X189724Y144685D01*
X190807Y145866D01*
X194055Y145866D01*
X195354Y141732D02*
X199685Y141732D01*
X197519Y141732D02*
X197519Y145866D01*
X197519Y148818D02*
X197519Y148228D01*
X195895Y145866D02*
X197519Y145866D01*
X200984Y148818D02*
X200984Y142913D01*
X202066Y141732D01*
X205314Y141732D01*
X200984Y145866D02*
X203149Y145866D01*
X206614Y141732D02*
X210944Y141732D01*
X208779Y141732D02*
X208779Y145866D01*
X208779Y148818D02*
X208779Y148228D01*
X207155Y145866D02*
X208779Y145866D01*
X212244Y144685D02*
X212244Y142913D01*
X212244Y144685D02*
X213326Y145866D01*
X215492Y145866D01*
X216574Y144685D01*
X216574Y142913D01*
X215492Y141732D01*
X213326Y141732D01*
X212244Y142913D01*
X217874Y141732D02*
X217874Y145866D01*
X217874Y144685D02*
X218956Y145866D01*
X221122Y145866D01*
X222204Y144685D01*
X222204Y141732D01*
X224586Y142322D02*
X224586Y141732D01*
X225127Y141732D01*
X225127Y142322D01*
X224586Y142322D01*
X225127Y145275D02*
X224586Y145275D01*
X224586Y144685D01*
X225127Y144685D01*
X225127Y145275D01*
X234763Y148818D02*
X234763Y141732D01*
X234763Y144094D02*
X239094Y148818D01*
X236387Y145866D02*
X239094Y141732D01*
X240393Y144685D02*
X240393Y142913D01*
X240393Y144685D02*
X241476Y145866D01*
X243641Y145866D01*
X244724Y144685D01*
X244724Y142913D01*
X243641Y141732D01*
X241476Y141732D01*
X240393Y142913D01*
X250354Y141732D02*
X250354Y144685D01*
X249271Y145866D01*
X248188Y141732D02*
X248188Y144685D01*
X246023Y145866D02*
X249271Y145866D01*
X246023Y141732D02*
X246023Y145866D01*
X248188Y144685D02*
X247106Y145866D01*
X255984Y141732D02*
X255984Y144685D01*
X254901Y145866D01*
X253818Y141732D02*
X253818Y144685D01*
X251653Y145866D02*
X254901Y145866D01*
X251653Y141732D02*
X251653Y145866D01*
X253818Y144685D02*
X252736Y145866D01*
X261614Y142322D02*
X260531Y141732D01*
X258366Y141732D01*
X257283Y142913D01*
X257283Y144685D01*
X258366Y145866D01*
X260531Y145866D01*
X261614Y145275D01*
X261614Y144685D01*
X260531Y144094D01*
X257283Y144094D01*
X262913Y145866D02*
X262913Y141732D01*
X262913Y144094D02*
X264537Y145866D01*
X267244Y145866D01*
X268543Y145866D02*
X272874Y145866D01*
X268543Y141732D01*
X272874Y141732D01*
X274173Y141732D02*
X278503Y141732D01*
X276338Y141732D02*
X276338Y145866D01*
X276338Y148818D02*
X276338Y148228D01*
X274714Y145866D02*
X276338Y145866D01*
X284133Y142322D02*
X283051Y141732D01*
X280885Y141732D01*
X279803Y142913D01*
X279803Y144685D01*
X280885Y145866D01*
X283051Y145866D01*
X284133Y145275D01*
X284133Y144685D01*
X283051Y144094D01*
X279803Y144094D01*
X285433Y141732D02*
X289763Y141732D01*
X286515Y148818D02*
X287598Y148818D01*
X287598Y141732D01*
X291062Y141732D02*
X295393Y141732D01*
X292145Y148818D02*
X293228Y148818D01*
X293228Y141732D01*
X301023Y142322D02*
X299940Y141732D01*
X297775Y141732D01*
X296692Y142913D01*
X296692Y144685D01*
X297775Y145866D01*
X299940Y145866D01*
X301023Y145275D01*
X301023Y144685D01*
X299940Y144094D01*
X296692Y144094D01*
X307952Y141732D02*
X307952Y148818D01*
X312283Y141732D01*
X312283Y148818D01*
X313582Y145866D02*
X313582Y142913D01*
X314665Y141732D01*
X316830Y141732D01*
X317913Y142913D01*
X317913Y145866D02*
X317913Y141732D01*
X319212Y148818D02*
X319212Y142913D01*
X320295Y141732D01*
X323543Y141732D01*
X319212Y145866D02*
X321377Y145866D01*
X324842Y145866D02*
X329173Y145866D01*
X324842Y141732D01*
X329173Y141732D01*
X330472Y145866D02*
X330472Y142913D01*
X331555Y141732D01*
X333720Y141732D01*
X334803Y142913D01*
X334803Y145866D02*
X334803Y141732D01*
X336102Y141732D02*
X336102Y145866D01*
X336102Y144685D02*
X337185Y145866D01*
X339350Y145866D01*
X340433Y144685D01*
X340433Y141732D01*
X346062Y142913D02*
X344980Y141732D01*
X342814Y141732D01*
X341732Y142913D01*
X341732Y144685D01*
X342814Y145866D01*
X344980Y145866D01*
X346062Y144685D01*
X346062Y140551D01*
X344980Y139370D01*
X341732Y139370D01*
X352992Y141732D02*
X357322Y141732D01*
X355157Y141732D02*
X355157Y145866D01*
X355157Y148818D02*
X355157Y148228D01*
X353533Y145866D02*
X355157Y145866D01*
X358622Y141732D02*
X362411Y141732D01*
X362952Y142913D01*
X362411Y144094D01*
X359163Y144094D01*
X358622Y145275D01*
X359163Y145866D01*
X362952Y145866D01*
X364251Y148818D02*
X364251Y142913D01*
X365334Y141732D01*
X368582Y141732D01*
X364251Y145866D02*
X366417Y145866D01*
X375511Y141732D02*
X379301Y141732D01*
X379842Y142913D01*
X379301Y144094D01*
X376053Y144094D01*
X375511Y145275D01*
X376053Y145866D01*
X379842Y145866D01*
X381141Y148818D02*
X381141Y142913D01*
X382224Y141732D01*
X385472Y141732D01*
X381141Y145866D02*
X383307Y145866D01*
X386771Y145866D02*
X386771Y141732D01*
X386771Y144094D02*
X388395Y145866D01*
X391102Y145866D01*
X392401Y142913D02*
X393484Y141732D01*
X395649Y141732D01*
X396732Y142913D01*
X392401Y142913D02*
X392401Y144685D01*
X393484Y145866D01*
X395649Y145866D01*
X396732Y144685D01*
X396732Y141732D01*
X398031Y139370D02*
X398031Y147637D01*
X399114Y148818D01*
X402362Y148818D01*
X398031Y144094D02*
X400196Y144094D01*
X403661Y148818D02*
X403661Y141732D01*
X406909Y141732D01*
X407992Y142913D01*
X407992Y144685D01*
X406909Y145866D01*
X403661Y145866D01*
X409291Y142913D02*
X410374Y141732D01*
X412539Y141732D01*
X413622Y142913D01*
X409291Y142913D02*
X409291Y144685D01*
X410374Y145866D01*
X412539Y145866D01*
X413622Y144685D01*
X413622Y141732D01*
X414921Y145866D02*
X414921Y141732D01*
X414921Y144094D02*
X416545Y145866D01*
X419251Y145866D01*
X422716Y141732D02*
X422716Y142322D01*
X423257Y142322D01*
X423257Y141732D01*
X422716Y141732D01*
X422716Y144094D02*
X423257Y144094D01*
X423799Y147637D01*
X423257Y148818D01*
X422716Y148818D01*
X422175Y147637D01*
X422716Y144094D01*
G54D15*
X220002Y2363D02*
X220455Y2362D01*
X222112Y2507D01*
X223703Y2933D01*
X225196Y3629D01*
X226545Y4573D01*
X227709Y5738D01*
X228654Y7087D01*
X229349Y8579D01*
X229776Y10170D01*
X229921Y11827D01*
X229920Y12280D01*
X229921Y12282D01*
X229921Y32677D01*
X207938Y32677D01*
X207899Y32637D01*
X200447Y32637D01*
X199409Y33675D01*
X199409Y41127D01*
X200447Y42165D01*
X207899Y42165D01*
X207938Y42125D01*
X229921Y42125D01*
X229921Y121575D01*
X229920Y121577D01*
X229921Y122030D01*
X229776Y123687D01*
X229349Y125278D01*
X228654Y126770D01*
X227709Y128119D01*
X226545Y129284D01*
X225196Y130228D01*
X223703Y130924D01*
X222112Y131351D01*
X220455Y131496D01*
X220002Y131495D01*
X220000Y131496D01*
X12282Y131496D01*
X12280Y131495D01*
X11827Y131496D01*
X10170Y131351D01*
X8579Y130924D01*
X7087Y130228D01*
X5738Y129284D01*
X4573Y128119D01*
X3629Y126770D01*
X2933Y125278D01*
X2507Y123687D01*
X2362Y122030D01*
X2363Y121577D01*
X2362Y121575D01*
X2362Y12282D01*
X2363Y12280D01*
X2362Y11827D01*
X2507Y10170D01*
X2933Y8579D01*
X3629Y7087D01*
X4573Y5738D01*
X5738Y4573D01*
X7087Y3629D01*
X8579Y2933D01*
X10170Y2507D01*
X11827Y2362D01*
X12280Y2363D01*
X12283Y2362D01*
X220000Y2362D01*
X220002Y2363D01*
X169344Y32637D02*
X168307Y33675D01*
X168307Y41127D01*
X169344Y42165D01*
X176796Y42165D01*
X176855Y42106D01*
X183380Y42106D01*
X183439Y42165D01*
X190891Y42165D01*
X191929Y41127D01*
X191929Y33675D01*
X190891Y32637D01*
X183439Y32637D01*
X183380Y32696D01*
X176855Y32696D01*
X176796Y32637D01*
X169344Y32637D01*
X139518Y32322D02*
X138480Y33360D01*
X138480Y41442D01*
X139518Y42480D01*
X144096Y42480D01*
X144470Y42106D01*
X152277Y42106D01*
X152337Y42165D01*
X159788Y42165D01*
X160826Y41127D01*
X160826Y33675D01*
X159788Y32637D01*
X152337Y32637D01*
X152277Y32696D01*
X144470Y32696D01*
X144096Y32322D01*
X139518Y32322D01*
X119898Y32283D02*
X118629Y32751D01*
X117680Y33700D01*
X117212Y34969D01*
X117212Y39833D01*
X117680Y41103D01*
X118629Y42052D01*
X119898Y42519D01*
X121219Y42519D01*
X122341Y42106D01*
X129144Y42106D01*
X129518Y42480D01*
X134096Y42480D01*
X135133Y41442D01*
X135133Y33360D01*
X134096Y32322D01*
X129518Y32322D01*
X129144Y32696D01*
X122341Y32696D01*
X121219Y32283D01*
X119898Y32283D01*
X108087Y32283D02*
X106965Y32696D01*
X91328Y32696D01*
X90954Y32322D01*
X86376Y32322D01*
X85338Y33360D01*
X85338Y41442D01*
X86376Y42480D01*
X90954Y42480D01*
X91328Y42106D01*
X106965Y42106D01*
X108087Y42519D01*
X109408Y42519D01*
X110677Y42052D01*
X111626Y41103D01*
X112094Y39833D01*
X112094Y34969D01*
X111626Y33700D01*
X110677Y32751D01*
X109408Y32283D01*
X108087Y32283D01*
X63606Y32283D02*
X62337Y32751D01*
X61388Y33700D01*
X60921Y34969D01*
X60921Y39833D01*
X61388Y41103D01*
X62337Y42052D01*
X63606Y42519D01*
X64928Y42519D01*
X66050Y42106D01*
X76002Y42106D01*
X76376Y42480D01*
X80954Y42480D01*
X81992Y41442D01*
X81992Y33360D01*
X80954Y32322D01*
X76376Y32322D01*
X76002Y32696D01*
X66050Y32696D01*
X64928Y32283D01*
X63606Y32283D01*
X51795Y32283D02*
X50673Y32696D01*
X44422Y32696D01*
X44206Y32480D01*
X39195Y32480D01*
X38157Y33518D01*
X38157Y41285D01*
X39195Y42322D01*
X44206Y42322D01*
X44422Y42106D01*
X50673Y42106D01*
X51795Y42519D01*
X53117Y42519D01*
X54386Y42052D01*
X55335Y41103D01*
X55803Y39833D01*
X55803Y34969D01*
X55335Y33700D01*
X54386Y32751D01*
X53117Y32283D01*
X51795Y32283D01*
X13116Y31165D02*
X12078Y32203D01*
X12078Y37214D01*
X12114Y37250D01*
X12078Y37285D01*
X12078Y42296D01*
X13116Y43334D01*
X20883Y43334D01*
X21921Y42296D01*
X21921Y42106D01*
X27561Y42106D01*
X27777Y42322D01*
X32788Y42322D01*
X33826Y41285D01*
X33826Y33518D01*
X32788Y32480D01*
X27777Y32480D01*
X27561Y32696D01*
X21921Y32696D01*
X21921Y32203D01*
X20883Y31165D01*
X13116Y31165D01*
X129518Y45000D02*
X128480Y46037D01*
X128480Y54119D01*
X129518Y55157D01*
X134096Y55157D01*
X135133Y54119D01*
X135133Y46037D01*
X134096Y45000D01*
X129518Y45000D01*
X76376Y45000D02*
X75338Y46037D01*
X75338Y54119D01*
X76376Y55157D01*
X80954Y55157D01*
X81992Y54119D01*
X81992Y46037D01*
X80954Y45000D01*
X76376Y45000D01*
X139518Y45000D02*
X138480Y46037D01*
X138480Y54119D01*
X139518Y55157D01*
X140405Y55157D01*
X140405Y55578D01*
X139344Y55578D01*
X138307Y56616D01*
X138307Y64383D01*
X139344Y65421D01*
X140405Y65421D01*
X140405Y66078D01*
X139344Y66078D01*
X138307Y67116D01*
X138307Y74883D01*
X139344Y75921D01*
X144355Y75921D01*
X145393Y74883D01*
X145393Y67116D01*
X144355Y66078D01*
X143295Y66078D01*
X143295Y65421D01*
X144355Y65421D01*
X145393Y64383D01*
X145393Y56616D01*
X144355Y55578D01*
X143295Y55578D01*
X143295Y55157D01*
X144096Y55157D01*
X145133Y54119D01*
X145133Y46037D01*
X144096Y45000D01*
X139518Y45000D01*
X86376Y45000D02*
X85338Y46037D01*
X85338Y54119D01*
X86376Y55157D01*
X87263Y55157D01*
X87263Y55578D01*
X86203Y55578D01*
X85165Y56616D01*
X85165Y64383D01*
X86203Y65421D01*
X87263Y65421D01*
X87263Y66078D01*
X86203Y66078D01*
X85165Y67116D01*
X85165Y74883D01*
X86203Y75921D01*
X91214Y75921D01*
X92251Y74883D01*
X92251Y67116D01*
X91214Y66078D01*
X90153Y66078D01*
X90153Y65421D01*
X91214Y65421D01*
X92251Y64383D01*
X92251Y56616D01*
X91214Y55578D01*
X90153Y55578D01*
X90153Y55157D01*
X90954Y55157D01*
X91992Y54119D01*
X91992Y46037D01*
X90954Y45000D01*
X86376Y45000D01*
X74785Y66078D02*
X73748Y67116D01*
X73748Y74883D01*
X74785Y75921D01*
X75846Y75921D01*
X75846Y76578D01*
X74785Y76578D01*
X73748Y77616D01*
X73748Y85383D01*
X74785Y86421D01*
X79796Y86421D01*
X80834Y85383D01*
X80834Y77616D01*
X79796Y76578D01*
X78736Y76578D01*
X78736Y75921D01*
X79796Y75921D01*
X80834Y74883D01*
X80834Y67116D01*
X79796Y66078D01*
X74785Y66078D01*
X127927Y66078D02*
X126889Y67116D01*
X126889Y74883D01*
X127927Y75921D01*
X128988Y75921D01*
X128988Y76578D01*
X127927Y76578D01*
X126889Y77616D01*
X126889Y85383D01*
X127856Y86350D01*
X120480Y86350D01*
X120480Y86350D01*
X119283Y86350D01*
X112731Y92902D01*
X112544Y92716D01*
X107533Y92716D01*
X107347Y92902D01*
X94500Y80055D01*
X93303Y80055D01*
X93303Y80055D01*
X92251Y80055D01*
X92251Y77616D01*
X91214Y76578D01*
X86203Y76578D01*
X85165Y77616D01*
X85165Y85383D01*
X86203Y86421D01*
X91214Y86421D01*
X92251Y85383D01*
X92251Y82944D01*
X93303Y82944D01*
X106496Y96137D01*
X106496Y101521D01*
X107533Y102559D01*
X112544Y102559D01*
X113582Y101521D01*
X113582Y99082D01*
X115551Y99082D01*
X115551Y101521D01*
X116588Y102559D01*
X129867Y102559D01*
X130905Y101521D01*
X130905Y93754D01*
X129867Y92716D01*
X117003Y92716D01*
X120480Y89240D01*
X134956Y89240D01*
X134956Y89240D01*
X136153Y89240D01*
X139158Y86235D01*
X139344Y86421D01*
X144355Y86421D01*
X145393Y85383D01*
X145393Y77616D01*
X144355Y76578D01*
X139344Y76578D01*
X138307Y77616D01*
X138307Y82999D01*
X134956Y86350D01*
X133009Y86350D01*
X133976Y85383D01*
X133976Y77616D01*
X132938Y76578D01*
X131877Y76578D01*
X131877Y75921D01*
X132938Y75921D01*
X133976Y74883D01*
X133976Y67116D01*
X132938Y66078D01*
X127927Y66078D01*
X209604Y105250D02*
X205942Y106600D01*
X203229Y109313D01*
X201879Y112976D01*
X201879Y113451D01*
X192788Y113451D01*
X192788Y113451D01*
X191591Y113451D01*
X182866Y122177D01*
X118511Y122177D01*
X117003Y120669D01*
X129867Y120669D01*
X130905Y119631D01*
X130905Y111864D01*
X129867Y110826D01*
X116588Y110826D01*
X115551Y111864D01*
X115551Y114303D01*
X113582Y114303D01*
X113582Y111864D01*
X112544Y110826D01*
X107533Y110826D01*
X106496Y111864D01*
X106496Y119631D01*
X107533Y120669D01*
X112544Y120669D01*
X112731Y120483D01*
X117314Y125066D01*
X118511Y125066D01*
X118511Y125066D01*
X182866Y125066D01*
X182866Y125066D01*
X184063Y125066D01*
X192788Y116341D01*
X201879Y116341D01*
X201879Y116817D01*
X203229Y120480D01*
X205942Y123192D01*
X209604Y124542D01*
X213446Y124542D01*
X217108Y123192D01*
X219821Y120480D01*
X221171Y116817D01*
X221171Y112976D01*
X219821Y109313D01*
X217108Y106600D01*
X213446Y105250D01*
X209604Y105250D01*
G54D17*
X77291Y71000D02*
X77291Y81500D01*
X88708Y50122D02*
X88708Y71000D01*
X88708Y50122D02*
X88665Y50078D01*
X123228Y97637D02*
X110039Y97637D01*
X93901Y81500D01*
X88708Y81500D01*
X110039Y97637D02*
X119881Y87795D01*
X135555Y87795D02*
X119881Y87795D01*
X135555Y87795D02*
X141850Y81500D01*
X130433Y71000D02*
X130433Y81500D01*
X141850Y50122D02*
X141850Y71000D01*
X141850Y50122D02*
X141807Y50078D01*
X123228Y115748D02*
X110039Y115748D01*
X117913Y123622D01*
X183464Y123622D01*
X192189Y114896D01*
X211525Y114896D01*
G54D18*
X97928Y30158D03*
X105802Y30158D03*
X113676Y30158D03*
X121550Y30158D03*
X11313Y30158D03*
X19187Y30158D03*
X27062Y30158D03*
X34936Y30158D03*
X42810Y30158D03*
X50684Y30158D03*
X58558Y30158D03*
X66432Y30158D03*
X74306Y30158D03*
X82180Y30158D03*
X90054Y30158D03*
X4227Y30158D03*
X11313Y44533D03*
X19187Y44533D03*
X27062Y44533D03*
X34936Y44533D03*
X42810Y44533D03*
X50684Y44533D03*
X58558Y44533D03*
X66432Y44533D03*
X74306Y44533D03*
X4227Y44533D03*
X222928Y30158D03*
X136313Y30158D03*
X144187Y30158D03*
X152062Y30158D03*
X159936Y30158D03*
X167810Y30158D03*
X175684Y30158D03*
X183558Y30158D03*
X191432Y30158D03*
X199306Y30158D03*
X207180Y30158D03*
X215054Y30158D03*
X129227Y30158D03*
X222928Y44533D03*
X199306Y44533D03*
X207180Y44533D03*
X215054Y44533D03*
X203400Y103643D03*
X211274Y103643D03*
X219148Y103643D03*
X227022Y103643D03*
X96313Y127658D03*
X104187Y127658D03*
X112062Y127658D03*
X119936Y127658D03*
X127810Y127658D03*
X135684Y127658D03*
X143558Y127658D03*
X151432Y127658D03*
X159306Y127658D03*
X167180Y127658D03*
X195526Y103643D03*
X89227Y127658D03*
X145558Y44533D03*
X153432Y44533D03*
X161306Y44533D03*
X9069Y17757D03*
X16943Y17757D03*
X24817Y17757D03*
X9069Y56615D03*
X16943Y56615D03*
X24817Y56615D03*
X125313Y60723D03*
X125313Y68597D03*
X72360Y52849D03*
X72360Y60723D03*
X72360Y68597D03*
X98321Y44332D03*
X106195Y44332D03*
X114069Y44332D03*
X121943Y44332D03*
X136707Y44332D03*
X129621Y44332D03*
X183558Y44332D03*
X191432Y44332D03*
X167810Y44332D03*
X175684Y44332D03*
G54D22*
X211525Y114896D03*
G54D24*
X187165Y37401D03*
X204173Y37401D03*
X156062Y37401D03*
X173070Y37401D03*
G54D25*
X123228Y115748D03*
X123228Y97637D03*
G54D26*
X195669Y29153D03*
X195669Y45649D03*
X164566Y29153D03*
X164566Y45649D03*
G54D29*
X149606Y106692D03*
G54D30*
X52456Y37401D03*
X64267Y37401D03*
X108748Y37401D03*
X120559Y37401D03*
G54D31*
X58362Y38283D03*
X114653Y38283D03*
G54D32*
X58362Y47874D03*
X114653Y47874D03*
G54D33*
X88708Y81500D03*
X77291Y81500D03*
X141850Y81500D03*
X130433Y81500D03*
G54D34*
X17000Y34708D03*
X17000Y23291D03*
G54D35*
X98622Y97637D03*
X110039Y97637D03*
X30283Y37401D03*
X41700Y37401D03*
X77291Y71000D03*
X88708Y71000D03*
X77291Y60500D03*
X88708Y60500D03*
X130433Y71000D03*
X141850Y71000D03*
X130433Y60500D03*
X141850Y60500D03*
X98622Y115748D03*
X110039Y115748D03*
G54D36*
X17000Y39791D03*
X17000Y51208D03*
G54D37*
X78665Y37401D03*
X78665Y50078D03*
X88665Y50078D03*
X88665Y37401D03*
X131807Y37401D03*
X131807Y50078D03*
X141807Y50078D03*
X141807Y37401D03*
G36*
X220480Y131471D02*
X11803Y131471D01*
X11803Y131520D01*
X220000Y131520D01*
X220480Y131520D01*
X220480Y131471D01*
G37*
G36*
X10146Y131326D02*
X10144Y131373D01*
X11826Y131520D01*
X220480Y131520D01*
X220480Y131471D01*
X10146Y131326D01*
G37*
G36*
X222136Y131326D02*
X10145Y131326D01*
X10145Y131375D01*
X220456Y131520D01*
X222138Y131373D01*
X222136Y131326D01*
G37*
G36*
X8558Y130900D02*
X8552Y130942D01*
X10167Y131375D01*
X222137Y131375D01*
X222137Y131326D01*
X8558Y130900D01*
G37*
G36*
X223725Y130900D02*
X8555Y130900D01*
X8555Y130949D01*
X222116Y131375D01*
X223730Y130942D01*
X223725Y130900D01*
G37*
G36*
X7067Y130204D02*
X7059Y130242D01*
X8574Y130949D01*
X223728Y130949D01*
X223728Y130900D01*
X7067Y130204D01*
G37*
G36*
X225215Y130204D02*
X7062Y130204D01*
X7062Y130253D01*
X223709Y130949D01*
X225224Y130242D01*
X225215Y130204D01*
G37*
G36*
X5720Y129259D02*
X5709Y129294D01*
X7079Y130253D01*
X225220Y130253D01*
X225220Y130204D01*
X5720Y129259D01*
G37*
G36*
X226563Y129259D02*
X5713Y129259D01*
X5713Y129308D01*
X225203Y130253D01*
X226573Y129294D01*
X226563Y129259D01*
G37*
G36*
X4557Y128095D02*
X4544Y128125D01*
X5728Y129308D01*
X226569Y129308D01*
X226569Y129259D01*
X4557Y128095D01*
G37*
G36*
X227725Y128095D02*
X4549Y128095D01*
X4549Y128144D01*
X226555Y129308D01*
X227738Y128125D01*
X227725Y128095D01*
G37*
G36*
X3614Y126746D02*
X3600Y126772D01*
X4561Y128144D01*
X227734Y128144D01*
X227734Y128095D01*
X3614Y126746D01*
G37*
G36*
X228668Y126746D02*
X3604Y126746D01*
X3604Y126795D01*
X227722Y128144D01*
X228682Y126772D01*
X228668Y126746D01*
G37*
G36*
X2894Y125253D02*
X3613Y126795D01*
X228678Y126795D01*
X228678Y126746D01*
X2894Y125253D01*
G37*
G36*
X229388Y125253D02*
X2908Y125253D01*
X2908Y125302D01*
X228669Y126795D01*
X229388Y125253D01*
G37*
G36*
X117314Y125042D02*
X2908Y125253D01*
X2908Y125303D01*
X229374Y125303D01*
X229374Y125253D01*
X117314Y125042D01*
G37*
G36*
X184063Y125042D02*
X117290Y125042D01*
X117290Y125091D01*
X229374Y125303D01*
X229374Y125253D01*
X184063Y125042D01*
G37*
G36*
X209605Y124517D02*
X184038Y125042D01*
X184038Y125091D01*
X229374Y125303D01*
X229375Y125254D01*
X209605Y124517D01*
G37*
G36*
X213446Y124517D02*
X209580Y124517D01*
X209579Y124566D01*
X229373Y125303D01*
X229375Y125254D01*
X213446Y124517D01*
G37*
G36*
X2475Y123662D02*
X2914Y125303D01*
X117339Y125091D01*
X117339Y125042D01*
X2475Y123662D01*
G37*
G36*
X229808Y123661D02*
X213421Y124518D01*
X213421Y124565D01*
X229368Y125303D01*
X229808Y123661D01*
G37*
G36*
X205945Y123167D02*
X184037Y125044D01*
X184039Y125092D01*
X209625Y124566D01*
X209632Y124526D01*
X205945Y123167D01*
G37*
G36*
X217105Y123168D02*
X213417Y124526D01*
X213426Y124567D01*
X229800Y123711D01*
X229800Y123664D01*
X217105Y123168D01*
G37*
G36*
X2335Y122005D02*
X2484Y123712D01*
X117339Y125091D01*
X117339Y125042D01*
X2335Y122005D01*
G37*
G36*
X229948Y122003D02*
X217083Y123170D01*
X217084Y123216D01*
X229798Y123713D01*
X229948Y122003D01*
G37*
G36*
X107539Y120644D02*
X2337Y122006D01*
X2337Y122054D01*
X117334Y125092D01*
X117343Y125052D01*
X107539Y120644D01*
G37*
G36*
X112554Y120644D02*
X107513Y120644D01*
X107505Y120683D01*
X117323Y125097D01*
X117346Y125063D01*
X112554Y120644D01*
G37*
G36*
X116987Y120644D02*
X116974Y120674D01*
X118501Y122201D01*
X182890Y122201D01*
X182890Y122153D01*
X116987Y120644D01*
G37*
G36*
X129868Y120644D02*
X116979Y120644D01*
X116979Y120693D01*
X182890Y122202D01*
X182891Y122153D01*
X129868Y120644D01*
G37*
G36*
X112731Y120448D02*
X112509Y120670D01*
X117315Y125101D01*
X117349Y125066D01*
X112731Y120448D01*
G37*
G36*
X203237Y120452D02*
X184035Y125048D01*
X184042Y125093D01*
X205959Y123216D01*
X205970Y123186D01*
X203237Y120452D01*
G37*
G36*
X219813Y120453D02*
X217079Y123187D01*
X217094Y123218D01*
X229945Y122053D01*
X229946Y122009D01*
X219813Y120453D01*
G37*
G36*
X106506Y119606D02*
X2337Y122006D01*
X2338Y122055D01*
X107550Y120693D01*
X107562Y120663D01*
X106506Y119606D01*
G37*
G36*
X130895Y119606D02*
X129838Y120663D01*
X129850Y120693D01*
X182889Y122202D01*
X182891Y122153D01*
X130895Y119606D01*
G37*
G36*
X201893Y116783D02*
X184032Y125053D01*
X184047Y125096D01*
X203262Y120497D01*
X201893Y116783D01*
G37*
G36*
X221158Y116780D02*
X219788Y120499D01*
X229937Y122057D01*
X229951Y122019D01*
X221158Y116780D01*
G37*
G36*
X192778Y116316D02*
X184031Y125064D01*
X184054Y125097D01*
X201907Y116831D01*
X201900Y116793D01*
X192778Y116316D01*
G37*
G36*
X201904Y116316D02*
X192764Y116316D01*
X192763Y116364D01*
X201904Y116843D01*
X201904Y116316D01*
G37*
G36*
X191606Y113425D02*
X130880Y119609D01*
X130881Y119654D01*
X182875Y122202D01*
X191621Y113456D01*
X191606Y113425D01*
G37*
G36*
X201904Y112950D02*
X191566Y113428D01*
X191567Y113476D01*
X201904Y113476D01*
X201904Y112950D01*
G37*
G36*
X221177Y112947D02*
X221146Y112959D01*
X221146Y116831D01*
X229927Y122062D01*
X229953Y122028D01*
X221177Y112947D01*
G37*
G36*
X106520Y111837D02*
X2336Y122008D01*
X2339Y122055D01*
X106520Y119655D01*
X106520Y111837D01*
G37*
G36*
X113590Y111835D02*
X113558Y111847D01*
X113558Y114327D01*
X115566Y114327D01*
X115580Y114299D01*
X113590Y111835D01*
G37*
G36*
X115575Y111839D02*
X113567Y111839D01*
X113553Y111867D01*
X115542Y114332D01*
X115575Y114320D01*
X115575Y111839D01*
G37*
G36*
X130880Y111839D02*
X130880Y119658D01*
X191616Y113473D01*
X191615Y113427D01*
X130880Y111839D01*
G37*
G36*
X130881Y111839D02*
X130880Y111888D01*
X191591Y113476D01*
X201904Y112999D01*
X201904Y112951D01*
X130881Y111839D01*
G37*
G36*
X107548Y110800D02*
X2335Y122008D01*
X2340Y122057D01*
X106507Y111888D01*
X107563Y110831D01*
X107548Y110800D01*
G37*
G36*
X112534Y110797D02*
X112513Y110830D01*
X113572Y111889D01*
X115572Y111889D01*
X115578Y111848D01*
X112534Y110797D01*
G37*
G36*
X116605Y110802D02*
X112524Y110802D01*
X112517Y110843D01*
X115557Y111892D01*
X116618Y110832D01*
X116605Y110802D01*
G37*
G36*
X129851Y110801D02*
X129838Y110832D01*
X130895Y111889D01*
X201903Y113001D01*
X201905Y112952D01*
X129851Y110801D01*
G37*
G36*
X203264Y109287D02*
X129843Y110802D01*
X129842Y110850D01*
X201896Y113001D01*
X203264Y109287D01*
G37*
G36*
X203253Y109288D02*
X107509Y110802D01*
X107509Y110851D01*
X129867Y110851D01*
X203254Y109337D01*
X203253Y109288D01*
G37*
G36*
X219828Y109281D02*
X219791Y109302D01*
X221149Y112989D01*
X229919Y122064D01*
X229955Y122033D01*
X219828Y109281D01*
G37*
G36*
X205957Y106575D02*
X107508Y110803D01*
X107509Y110851D01*
X203239Y109337D01*
X205971Y106605D01*
X205957Y106575D01*
G37*
G36*
X209624Y105225D02*
X107508Y110803D01*
X107510Y110852D01*
X205947Y106624D01*
X209633Y105266D01*
X209624Y105225D01*
G37*
G36*
X107509Y102533D02*
X107508Y102583D01*
X209604Y105275D01*
X213470Y105275D01*
X213471Y105227D01*
X107509Y102533D01*
G37*
G36*
X107509Y102533D02*
X107509Y110852D01*
X209629Y105274D01*
X209629Y105227D01*
X107509Y102533D01*
G37*
G36*
X107558Y102529D02*
X2334Y122010D01*
X2341Y122057D01*
X107558Y110848D01*
X107558Y102529D01*
G37*
G36*
X112545Y102534D02*
X107509Y102534D01*
X107508Y102583D01*
X213470Y105276D01*
X213471Y105227D01*
X112545Y102534D01*
G37*
G36*
X116589Y102534D02*
X112520Y102534D01*
X112519Y102583D01*
X213470Y105276D01*
X213471Y105227D01*
X116589Y102534D01*
G37*
G36*
X129868Y102534D02*
X116564Y102534D01*
X116564Y102582D01*
X213470Y105276D01*
X213471Y105227D01*
X129868Y102534D01*
G37*
G36*
X106504Y101494D02*
X2333Y122011D01*
X2342Y122059D01*
X107552Y102580D01*
X107561Y102552D01*
X106504Y101494D01*
G37*
G36*
X113576Y101492D02*
X112515Y102553D01*
X112528Y102583D01*
X116609Y102583D01*
X116616Y102542D01*
X113576Y101492D01*
G37*
G36*
X115561Y101496D02*
X113561Y101496D01*
X113554Y101537D01*
X116599Y102588D01*
X116620Y102555D01*
X115561Y101496D01*
G37*
G36*
X130895Y101496D02*
X129838Y102553D01*
X129850Y102583D01*
X213469Y105276D01*
X213471Y105227D01*
X130895Y101496D01*
G37*
G36*
X113590Y99053D02*
X113558Y99065D01*
X113558Y101545D01*
X115566Y101545D01*
X115580Y101517D01*
X113590Y99053D01*
G37*
G36*
X115575Y99058D02*
X113567Y99058D01*
X113553Y99086D01*
X115542Y101550D01*
X115575Y101538D01*
X115575Y99058D01*
G37*
G36*
X106520Y96106D02*
X2333Y122012D01*
X2343Y122059D01*
X106520Y101541D01*
X106520Y96106D01*
G37*
G36*
X130880Y93726D02*
X130880Y101544D01*
X213468Y105276D01*
X213472Y105229D01*
X130880Y93726D01*
G37*
G36*
X129853Y92689D02*
X129837Y92721D01*
X130893Y93777D01*
X213467Y105278D01*
X213474Y105230D01*
X129853Y92689D01*
G37*
G36*
X136149Y89214D02*
X129840Y92703D01*
X129846Y92738D01*
X213466Y105278D01*
X213474Y105231D01*
X136149Y89214D01*
G37*
G36*
X136169Y89212D02*
X116977Y92696D01*
X116981Y92741D01*
X129874Y92741D01*
X136183Y89251D01*
X136169Y89212D01*
G37*
G36*
X120470Y89215D02*
X116973Y92711D01*
X116990Y92743D01*
X136180Y89260D01*
X136176Y89215D01*
X120470Y89215D01*
G37*
G36*
X74783Y86394D02*
X2331Y122018D01*
X2346Y122059D01*
X106520Y96157D01*
X106521Y96119D01*
X74783Y86394D01*
G37*
G36*
X79801Y86396D02*
X74764Y86396D01*
X74758Y86438D01*
X106511Y96168D01*
X106527Y96122D01*
X79801Y86396D01*
G37*
G36*
X86208Y86396D02*
X79776Y86396D01*
X79769Y86437D01*
X106509Y96169D01*
X106527Y96125D01*
X86208Y86396D01*
G37*
G36*
X91221Y86396D02*
X86183Y86396D01*
X86174Y86434D01*
X106506Y96170D01*
X106528Y96129D01*
X91221Y86396D01*
G37*
G36*
X139338Y86394D02*
X136125Y89231D01*
X136133Y89261D01*
X213464Y105279D01*
X213475Y105233D01*
X139338Y86394D01*
G37*
G36*
X144359Y86396D02*
X139323Y86396D01*
X139317Y86439D01*
X213463Y105280D01*
X213476Y105233D01*
X144359Y86396D01*
G37*
G36*
X119284Y86315D02*
X112509Y92716D01*
X112731Y92937D01*
X119317Y86350D01*
X119284Y86315D01*
G37*
G36*
X119290Y86318D02*
X107505Y92704D01*
X107514Y92741D01*
X112554Y92741D01*
X119315Y86353D01*
X119290Y86318D01*
G37*
G36*
X139158Y86200D02*
X136119Y89239D01*
X136152Y89274D01*
X139380Y86422D01*
X139158Y86200D01*
G37*
G36*
X73752Y85353D02*
X2329Y122019D01*
X2351Y122063D01*
X74827Y86428D01*
X73752Y85353D01*
G37*
G36*
X80826Y85356D02*
X79767Y86415D01*
X79780Y86445D01*
X86225Y86445D01*
X86229Y86401D01*
X80826Y85356D01*
G37*
G36*
X85175Y85358D02*
X80812Y85358D01*
X80808Y85403D01*
X86216Y86448D01*
X86233Y86416D01*
X85175Y85358D01*
G37*
G36*
X92249Y85350D02*
X91175Y86425D01*
X106502Y96171D01*
X106529Y96132D01*
X92249Y85350D01*
G37*
G36*
X126898Y85357D02*
X119257Y86328D01*
X119260Y86375D01*
X127873Y86375D01*
X127885Y86344D01*
X126898Y85357D01*
G37*
G36*
X133976Y85348D02*
X132980Y86344D01*
X132993Y86375D01*
X134973Y86375D01*
X134985Y86344D01*
X133976Y85348D01*
G37*
G36*
X145386Y85355D02*
X144308Y86433D01*
X213463Y105281D01*
X213476Y105234D01*
X145386Y85355D01*
G37*
G36*
X138313Y82968D02*
X133935Y85377D01*
X134956Y86385D01*
X138339Y83002D01*
X138313Y82968D01*
G37*
G36*
X92256Y82915D02*
X92227Y82928D01*
X92227Y85395D01*
X106499Y96171D01*
X106529Y96135D01*
X92256Y82915D01*
G37*
G36*
X93313Y82920D02*
X92235Y82920D01*
X92222Y82951D01*
X106497Y96172D01*
X106530Y96137D01*
X93313Y82920D01*
G37*
G36*
X94499Y80020D02*
X94465Y80055D01*
X107347Y92937D01*
X107568Y92716D01*
X94499Y80020D01*
G37*
G36*
X94487Y80026D02*
X94469Y80059D01*
X107529Y92746D01*
X119309Y86364D01*
X119305Y86330D01*
X94487Y80026D01*
G37*
G36*
X94480Y80027D02*
X94471Y80073D01*
X119281Y86375D01*
X126913Y85405D01*
X126914Y85362D01*
X94480Y80027D01*
G37*
G36*
X73747Y77588D02*
X2329Y122022D01*
X2352Y122063D01*
X73772Y85398D01*
X73772Y77602D01*
X73747Y77588D01*
G37*
G36*
X80846Y77587D02*
X80810Y77597D01*
X80810Y85408D01*
X85207Y85408D01*
X80846Y77587D01*
G37*
G36*
X85189Y77591D02*
X80792Y77591D01*
X85153Y85412D01*
X85189Y85402D01*
X85189Y77591D01*
G37*
G36*
X92258Y77587D02*
X92227Y77599D01*
X92227Y80079D01*
X94516Y80079D01*
X94529Y80050D01*
X92258Y77587D01*
G37*
G36*
X92239Y77588D02*
X92221Y77619D01*
X94487Y80078D01*
X126909Y85411D01*
X126918Y85364D01*
X92239Y77588D01*
G37*
G36*
X126914Y77591D02*
X92229Y77591D01*
X92225Y77635D01*
X126914Y85414D01*
X126914Y77591D01*
G37*
G36*
X133984Y77587D02*
X133951Y77599D01*
X133951Y85425D01*
X138344Y83007D01*
X133984Y77587D01*
G37*
G36*
X138331Y77591D02*
X133960Y77591D01*
X133947Y77619D01*
X138298Y83028D01*
X138331Y83017D01*
X138331Y77591D01*
G37*
G36*
X145369Y77580D02*
X145369Y85401D01*
X213461Y105281D01*
X213477Y105236D01*
X145369Y77580D01*
G37*
G36*
X145380Y77584D02*
X145361Y77630D01*
X213437Y105273D01*
X217123Y106631D01*
X217140Y106586D01*
X145380Y77584D01*
G37*
G36*
X74791Y76546D02*
X2328Y122022D01*
X2354Y122064D01*
X73763Y77635D01*
X74818Y76580D01*
X74791Y76546D01*
G37*
G36*
X79783Y76551D02*
X79766Y76583D01*
X80824Y77641D01*
X85187Y77641D01*
X85191Y77596D01*
X79783Y76551D01*
G37*
G36*
X86219Y76554D02*
X79774Y76554D01*
X79770Y76598D01*
X85173Y77643D01*
X86232Y76584D01*
X86219Y76554D01*
G37*
G36*
X91198Y76553D02*
X91184Y76584D01*
X92241Y77641D01*
X126914Y77641D01*
X126914Y77592D01*
X91198Y76553D01*
G37*
G36*
X127944Y76554D02*
X91189Y76554D01*
X91189Y76602D01*
X126899Y77641D01*
X127956Y76584D01*
X127944Y76554D01*
G37*
G36*
X132925Y76551D02*
X132908Y76583D01*
X133966Y77641D01*
X138329Y77641D01*
X138333Y77596D01*
X132925Y76551D01*
G37*
G36*
X139361Y76554D02*
X132916Y76554D01*
X132911Y76598D01*
X138315Y77643D01*
X139373Y76584D01*
X139361Y76554D01*
G37*
G36*
X144346Y76548D02*
X144324Y76581D01*
X145379Y77637D01*
X217122Y106632D01*
X217141Y106587D01*
X144346Y76548D01*
G37*
G36*
X74786Y75892D02*
X74761Y75906D01*
X74761Y76603D01*
X75865Y76603D01*
X75875Y76567D01*
X74786Y75892D01*
G37*
G36*
X74784Y75892D02*
X2328Y122022D01*
X2354Y122064D01*
X74810Y76592D01*
X74810Y75906D01*
X74784Y75892D01*
G37*
G36*
X75871Y75896D02*
X74767Y75896D01*
X74757Y75932D01*
X75845Y76607D01*
X75871Y76593D01*
X75871Y75896D01*
G37*
G36*
X78711Y75896D02*
X78711Y76603D01*
X129012Y76603D01*
X129012Y76554D01*
X78711Y75896D01*
G37*
G36*
X79797Y75896D02*
X78711Y75896D01*
X78711Y75945D01*
X129012Y76603D01*
X129013Y76554D01*
X79797Y75896D01*
G37*
G36*
X86203Y75896D02*
X79772Y75896D01*
X79772Y75945D01*
X129012Y76603D01*
X129013Y76554D01*
X86203Y75896D01*
G37*
G36*
X91214Y75896D02*
X86178Y75896D01*
X86178Y75945D01*
X129012Y76603D01*
X129013Y76554D01*
X91214Y75896D01*
G37*
G36*
X127934Y75896D02*
X91189Y75896D01*
X91189Y75945D01*
X129006Y76603D01*
X129017Y76567D01*
X127934Y75896D01*
G37*
G36*
X129012Y75896D02*
X127909Y75896D01*
X127898Y75932D01*
X128987Y76607D01*
X129012Y76593D01*
X129012Y75896D01*
G37*
G36*
X131853Y75895D02*
X131853Y76603D01*
X144379Y76603D01*
X144381Y76555D01*
X131853Y75895D01*
G37*
G36*
X132939Y75896D02*
X131853Y75896D01*
X131852Y75944D01*
X144379Y76604D01*
X144381Y76555D01*
X132939Y75896D01*
G37*
G36*
X139346Y75896D02*
X132914Y75896D01*
X132913Y75944D01*
X144378Y76604D01*
X144382Y76557D01*
X139346Y75896D01*
G37*
G36*
X144380Y75896D02*
X139321Y75896D01*
X139318Y75942D01*
X144380Y76606D01*
X144380Y75896D01*
G37*
G36*
X144331Y75884D02*
X144331Y76595D01*
X217122Y106632D01*
X217141Y106587D01*
X144331Y75884D01*
G37*
G36*
X73751Y74851D02*
X2328Y122023D01*
X2354Y122064D01*
X74824Y75925D01*
X73751Y74851D01*
G37*
G36*
X80826Y74856D02*
X79767Y75915D01*
X79780Y75945D01*
X86225Y75945D01*
X86229Y75901D01*
X80826Y74856D01*
G37*
G36*
X85175Y74858D02*
X80812Y74858D01*
X80808Y74903D01*
X86216Y75948D01*
X86233Y75916D01*
X85175Y74858D01*
G37*
G36*
X92242Y74858D02*
X91185Y75915D01*
X91197Y75945D01*
X127951Y75945D01*
X127952Y75897D01*
X92242Y74858D01*
G37*
G36*
X126899Y74858D02*
X92227Y74858D01*
X92227Y74907D01*
X127943Y75946D01*
X127956Y75915D01*
X126899Y74858D01*
G37*
G36*
X133968Y74856D02*
X132909Y75915D01*
X132922Y75945D01*
X139367Y75945D01*
X139371Y75901D01*
X133968Y74856D01*
G37*
G36*
X138317Y74858D02*
X133954Y74858D01*
X133949Y74903D01*
X139358Y75948D01*
X139375Y75916D01*
X138317Y74858D01*
G37*
G36*
X145388Y74854D02*
X144312Y75929D01*
X217121Y106632D01*
X217141Y106587D01*
X145388Y74854D01*
G37*
G36*
X73745Y67087D02*
X2328Y122025D01*
X2356Y122064D01*
X73772Y74896D01*
X73772Y67101D01*
X73745Y67087D01*
G37*
G36*
X80846Y67087D02*
X80810Y67097D01*
X80810Y74908D01*
X85207Y74908D01*
X80846Y67087D01*
G37*
G36*
X85189Y67091D02*
X80792Y67091D01*
X85153Y74912D01*
X85189Y74902D01*
X85189Y67091D01*
G37*
G36*
X92227Y67085D02*
X92227Y74908D01*
X126911Y74908D01*
X126916Y74864D01*
X92227Y67085D01*
G37*
G36*
X126914Y67091D02*
X92229Y67091D01*
X92225Y67135D01*
X126914Y74914D01*
X126914Y67091D01*
G37*
G36*
X133988Y67087D02*
X133951Y67097D01*
X133951Y74908D01*
X138348Y74908D01*
X133988Y67087D01*
G37*
G36*
X138331Y67091D02*
X133934Y67091D01*
X138294Y74912D01*
X138331Y74902D01*
X138331Y67091D01*
G37*
G36*
X145369Y67074D02*
X145369Y74899D01*
X217120Y106632D01*
X217141Y106590D01*
X145369Y67074D01*
G37*
G36*
X74789Y66045D02*
X2327Y122026D01*
X2357Y122064D01*
X73764Y67135D01*
X74819Y66079D01*
X74789Y66045D01*
G37*
G36*
X79783Y66051D02*
X79766Y66083D01*
X80824Y67141D01*
X85187Y67141D01*
X85191Y67096D01*
X79783Y66051D01*
G37*
G36*
X86219Y66054D02*
X79774Y66054D01*
X79770Y66098D01*
X85173Y67143D01*
X86232Y66084D01*
X86219Y66054D01*
G37*
G36*
X91198Y66053D02*
X91184Y66084D01*
X92241Y67141D01*
X126914Y67141D01*
X126914Y67092D01*
X91198Y66053D01*
G37*
G36*
X127944Y66054D02*
X91189Y66054D01*
X91189Y66102D01*
X126899Y67141D01*
X127956Y66084D01*
X127944Y66054D01*
G37*
G36*
X132925Y66051D02*
X132908Y66083D01*
X133966Y67141D01*
X138329Y67141D01*
X138333Y67096D01*
X132925Y66051D01*
G37*
G36*
X139361Y66054D02*
X132916Y66054D01*
X132911Y66098D01*
X138315Y67143D01*
X139373Y66084D01*
X139361Y66054D01*
G37*
G36*
X144349Y66046D02*
X144323Y66081D01*
X145378Y67136D01*
X217118Y106633D01*
X217142Y106590D01*
X144349Y66046D01*
G37*
G36*
X86209Y65396D02*
X74760Y66055D01*
X74761Y66103D01*
X87282Y66103D01*
X87292Y66067D01*
X86209Y65396D01*
G37*
G36*
X87288Y65396D02*
X86184Y65396D01*
X86174Y65432D01*
X87263Y66107D01*
X87288Y66093D01*
X87288Y65396D01*
G37*
G36*
X90128Y65396D02*
X90128Y66103D01*
X140429Y66103D01*
X140430Y66054D01*
X90128Y65396D01*
G37*
G36*
X91214Y65396D02*
X90129Y65396D01*
X90128Y65445D01*
X140429Y66103D01*
X140430Y66054D01*
X91214Y65396D01*
G37*
G36*
X139351Y65396D02*
X91189Y65396D01*
X91189Y65445D01*
X140423Y66103D01*
X140434Y66067D01*
X139351Y65396D01*
G37*
G36*
X140430Y65396D02*
X139326Y65396D01*
X139316Y65432D01*
X140404Y66107D01*
X140430Y66093D01*
X140430Y65396D01*
G37*
G36*
X143295Y65392D02*
X143270Y65406D01*
X143270Y66103D01*
X144374Y66103D01*
X144384Y66067D01*
X143295Y65392D01*
G37*
G36*
X143286Y65388D02*
X143261Y65429D01*
X144343Y66099D01*
X217118Y106633D01*
X217142Y106590D01*
X143286Y65388D01*
G37*
G36*
X144362Y65396D02*
X143276Y65396D01*
X143266Y65433D01*
X217118Y106633D01*
X217142Y106591D01*
X144362Y65396D01*
G37*
G36*
X85173Y64357D02*
X74758Y66058D01*
X74763Y66104D01*
X86220Y65444D01*
X86231Y65415D01*
X85173Y64357D01*
G37*
G36*
X92241Y64358D02*
X91185Y65415D01*
X91197Y65445D01*
X139369Y65445D01*
X139369Y65397D01*
X92241Y64358D01*
G37*
G36*
X138317Y64358D02*
X92227Y64358D01*
X92227Y64407D01*
X139360Y65446D01*
X139374Y65415D01*
X138317Y64358D01*
G37*
G36*
X145389Y64352D02*
X144315Y65426D01*
X217118Y106633D01*
X217142Y106591D01*
X145389Y64352D01*
G37*
G36*
X85160Y56587D02*
X74755Y66072D01*
X74771Y66105D01*
X85189Y64404D01*
X85189Y56600D01*
X85160Y56587D01*
G37*
G36*
X85168Y56582D02*
X2327Y122026D01*
X2357Y122064D01*
X74801Y66097D01*
X85199Y56618D01*
X85168Y56582D01*
G37*
G36*
X92227Y56587D02*
X92227Y64408D01*
X138329Y64408D01*
X138333Y64362D01*
X92227Y56587D01*
G37*
G36*
X138331Y56591D02*
X92229Y56591D01*
X92225Y56637D01*
X138331Y64412D01*
X138331Y56591D01*
G37*
G36*
X145395Y56587D02*
X145369Y56601D01*
X145369Y64397D01*
X217116Y106633D01*
X217142Y106593D01*
X145395Y56587D01*
G37*
G36*
X86206Y55545D02*
X2327Y122026D01*
X2358Y122065D01*
X85181Y56634D01*
X86236Y55579D01*
X86206Y55545D01*
G37*
G36*
X91198Y55553D02*
X91184Y55584D01*
X92241Y56641D01*
X138331Y56641D01*
X138331Y56592D01*
X91198Y55553D01*
G37*
G36*
X139361Y55554D02*
X91189Y55554D01*
X91189Y55602D01*
X138317Y56641D01*
X139373Y55584D01*
X139361Y55554D01*
G37*
G36*
X144351Y55545D02*
X144322Y55580D01*
X145377Y56635D01*
X217115Y106634D01*
X217143Y106594D01*
X144351Y55545D01*
G37*
G36*
X76352Y55131D02*
X76350Y55181D01*
X86202Y55603D01*
X87287Y55603D01*
X87288Y55555D01*
X76352Y55131D01*
G37*
G36*
X76367Y55132D02*
X2328Y122028D01*
X2358Y122064D01*
X86231Y55587D01*
X86221Y55554D01*
X76367Y55132D01*
G37*
G36*
X80955Y55132D02*
X76352Y55132D01*
X76351Y55181D01*
X87287Y55604D01*
X87289Y55555D01*
X80955Y55132D01*
G37*
G36*
X86381Y55132D02*
X80930Y55132D01*
X80928Y55180D01*
X87282Y55604D01*
X87292Y55565D01*
X86381Y55132D01*
G37*
G36*
X87288Y55132D02*
X86356Y55132D01*
X86348Y55171D01*
X87288Y55617D01*
X87288Y55132D01*
G37*
G36*
X90128Y55132D02*
X90128Y55603D01*
X140430Y55603D01*
X140430Y55554D01*
X90128Y55132D01*
G37*
G36*
X90954Y55132D02*
X90129Y55132D01*
X90128Y55181D01*
X140429Y55603D01*
X140430Y55554D01*
X90954Y55132D01*
G37*
G36*
X129518Y55132D02*
X90929Y55132D01*
X90929Y55181D01*
X140429Y55603D01*
X140430Y55555D01*
X129518Y55132D01*
G37*
G36*
X134096Y55132D02*
X129493Y55132D01*
X129493Y55181D01*
X140428Y55604D01*
X140431Y55555D01*
X134096Y55132D01*
G37*
G36*
X139523Y55132D02*
X134072Y55132D01*
X134070Y55180D01*
X140424Y55604D01*
X140434Y55565D01*
X139523Y55132D01*
G37*
G36*
X140430Y55132D02*
X139498Y55132D01*
X139489Y55171D01*
X140430Y55617D01*
X140430Y55132D01*
G37*
G36*
X143270Y55121D02*
X143270Y55603D01*
X144376Y55603D01*
X144383Y55563D01*
X143270Y55121D01*
G37*
G36*
X144109Y55132D02*
X143274Y55132D01*
X143267Y55172D01*
X144363Y55608D01*
X144386Y55580D01*
X144109Y55132D01*
G37*
G36*
X144093Y55125D02*
X144064Y55153D01*
X144337Y55595D01*
X217114Y106634D01*
X217143Y106594D01*
X144093Y55125D01*
G37*
G36*
X75339Y54085D02*
X2327Y122029D01*
X2360Y122065D01*
X76412Y55158D01*
X75339Y54085D01*
G37*
G36*
X81984Y54092D02*
X80925Y55151D01*
X80937Y55182D01*
X86398Y55182D01*
X86403Y55138D01*
X81984Y54092D01*
G37*
G36*
X85348Y54095D02*
X81970Y54095D01*
X81965Y54138D01*
X86388Y55185D01*
X86406Y55153D01*
X85348Y54095D01*
G37*
G36*
X91982Y54094D02*
X90925Y55151D01*
X90937Y55182D01*
X129542Y55182D01*
X129543Y55133D01*
X91982Y54094D01*
G37*
G36*
X128490Y54095D02*
X91967Y54095D01*
X91967Y54143D01*
X129534Y55182D01*
X129547Y55151D01*
X128490Y54095D01*
G37*
G36*
X135126Y54092D02*
X134067Y55151D01*
X134079Y55182D01*
X139540Y55182D01*
X139545Y55138D01*
X135126Y54092D01*
G37*
G36*
X138490Y54095D02*
X135111Y54095D01*
X135106Y54138D01*
X139530Y55185D01*
X139548Y55153D01*
X138490Y54095D01*
G37*
G36*
X145131Y54087D02*
X144057Y55160D01*
X217114Y106634D01*
X217143Y106594D01*
X145131Y54087D01*
G37*
G36*
X75332Y46008D02*
X2327Y122030D01*
X2361Y122064D01*
X75363Y54130D01*
X75363Y46021D01*
X75332Y46008D01*
G37*
G36*
X82007Y46009D02*
X81967Y46017D01*
X81967Y54144D01*
X85375Y54144D01*
X82007Y46009D01*
G37*
G36*
X85363Y46013D02*
X81955Y46013D01*
X85323Y54147D01*
X85363Y54139D01*
X85363Y46013D01*
G37*
G36*
X91967Y46007D02*
X91967Y54144D01*
X128502Y54144D01*
X128507Y54100D01*
X91967Y46007D01*
G37*
G36*
X128504Y46013D02*
X91970Y46013D01*
X91965Y46057D01*
X128504Y54150D01*
X128504Y46013D01*
G37*
G36*
X135148Y46009D02*
X135109Y46017D01*
X135109Y54144D01*
X138517Y54144D01*
X135148Y46009D01*
G37*
G36*
X138504Y46013D02*
X135097Y46013D01*
X138465Y54147D01*
X138504Y54139D01*
X138504Y46013D01*
G37*
G36*
X145137Y46008D02*
X145109Y46022D01*
X145109Y54132D01*
X217113Y106634D01*
X217143Y106596D01*
X145137Y46008D01*
G37*
G36*
X80941Y44971D02*
X80923Y45004D01*
X81981Y46062D01*
X85360Y46062D01*
X85365Y46018D01*
X80941Y44971D01*
G37*
G36*
X86392Y44975D02*
X80932Y44975D01*
X80927Y45018D01*
X85346Y46064D01*
X86405Y45005D01*
X86392Y44975D01*
G37*
G36*
X90938Y44974D02*
X90925Y45005D01*
X91981Y46062D01*
X128504Y46062D01*
X128505Y46013D01*
X90938Y44974D01*
G37*
G36*
X129534Y44975D02*
X90930Y44975D01*
X90929Y45023D01*
X128490Y46062D01*
X129547Y45005D01*
X129534Y44975D01*
G37*
G36*
X134083Y44971D02*
X134065Y45004D01*
X135123Y46062D01*
X138502Y46062D01*
X138507Y46018D01*
X134083Y44971D01*
G37*
G36*
X139534Y44975D02*
X134074Y44975D01*
X134069Y45018D01*
X138488Y46064D01*
X139547Y45005D01*
X139534Y44975D01*
G37*
G36*
X144093Y44965D02*
X144061Y45000D01*
X145117Y46055D01*
X217111Y106635D01*
X217143Y106597D01*
X144093Y44965D01*
G37*
G36*
X13092Y43309D02*
X13091Y43358D01*
X76376Y45024D01*
X144120Y45024D01*
X144120Y44975D01*
X13092Y43309D01*
G37*
G36*
X13092Y43309D02*
X13091Y43358D01*
X75348Y46062D01*
X76405Y45005D01*
X76393Y44975D01*
X13092Y43309D01*
G37*
G36*
X13095Y43309D02*
X2335Y122044D01*
X2367Y122060D01*
X75367Y46043D01*
X75355Y46013D01*
X13095Y43309D01*
G37*
G36*
X20883Y43310D02*
X13092Y43310D01*
X13091Y43358D01*
X144120Y45024D01*
X144120Y44975D01*
X20883Y43310D01*
G37*
G36*
X51795Y42495D02*
X20858Y43310D01*
X20859Y43358D01*
X144120Y45024D01*
X144121Y44976D01*
X51795Y42495D01*
G37*
G36*
X53117Y42495D02*
X51771Y42495D01*
X51770Y42543D01*
X144119Y45025D01*
X144121Y44976D01*
X53117Y42495D01*
G37*
G36*
X63607Y42495D02*
X53093Y42495D01*
X53092Y42543D01*
X144119Y45025D01*
X144121Y44976D01*
X63607Y42495D01*
G37*
G36*
X64928Y42495D02*
X63582Y42495D01*
X63581Y42543D01*
X144119Y45025D01*
X144121Y44976D01*
X64928Y42495D01*
G37*
G36*
X108088Y42495D02*
X64904Y42495D01*
X64903Y42543D01*
X144119Y45025D01*
X144121Y44977D01*
X108088Y42495D01*
G37*
G36*
X109409Y42495D02*
X108063Y42495D01*
X108061Y42542D01*
X144118Y45026D01*
X144122Y44977D01*
X109409Y42495D01*
G37*
G36*
X119899Y42495D02*
X109385Y42495D01*
X109383Y42542D01*
X144118Y45026D01*
X144122Y44978D01*
X119899Y42495D01*
G37*
G36*
X121221Y42495D02*
X119874Y42495D01*
X119872Y42541D01*
X144117Y45026D01*
X144123Y44978D01*
X121221Y42495D01*
G37*
G36*
X76376Y42455D02*
X64903Y42495D01*
X64903Y42544D01*
X108111Y42544D01*
X108111Y42495D01*
X76376Y42455D01*
G37*
G36*
X80954Y42455D02*
X76351Y42455D01*
X76351Y42504D01*
X108111Y42544D01*
X108111Y42495D01*
X80954Y42455D01*
G37*
G36*
X86376Y42455D02*
X80929Y42455D01*
X80929Y42504D01*
X108111Y42544D01*
X108111Y42495D01*
X86376Y42455D01*
G37*
G36*
X90954Y42455D02*
X86351Y42455D01*
X86351Y42504D01*
X108111Y42544D01*
X108111Y42495D01*
X90954Y42455D01*
G37*
G36*
X129520Y42455D02*
X121196Y42495D01*
X121194Y42541D01*
X144117Y45027D01*
X144123Y44979D01*
X129520Y42455D01*
G37*
G36*
X134099Y42455D02*
X129495Y42455D01*
X129491Y42500D01*
X144115Y45028D01*
X144125Y44981D01*
X134099Y42455D01*
G37*
G36*
X139524Y42455D02*
X134074Y42455D01*
X134068Y42498D01*
X144111Y45029D01*
X144126Y44988D01*
X139524Y42455D01*
G37*
G36*
X144120Y42455D02*
X139499Y42455D01*
X139489Y42492D01*
X144120Y45041D01*
X144120Y42455D01*
G37*
G36*
X144100Y42451D02*
X144071Y42464D01*
X144071Y45011D01*
X217111Y106634D01*
X217143Y106598D01*
X144100Y42451D01*
G37*
G36*
X27776Y42298D02*
X20856Y43313D01*
X20860Y43359D01*
X51820Y42543D01*
X51820Y42495D01*
X27776Y42298D01*
G37*
G36*
X32789Y42298D02*
X27753Y42298D01*
X27753Y42347D01*
X51820Y42544D01*
X51820Y42495D01*
X32789Y42298D01*
G37*
G36*
X39195Y42298D02*
X32764Y42298D01*
X32764Y42347D01*
X51820Y42544D01*
X51820Y42495D01*
X39195Y42298D01*
G37*
G36*
X44206Y42298D02*
X39170Y42298D01*
X39170Y42347D01*
X51820Y42544D01*
X51821Y42495D01*
X44206Y42298D01*
G37*
G36*
X12085Y42268D02*
X12056Y42278D01*
X2334Y122051D01*
X2383Y122058D01*
X13142Y43325D01*
X12085Y42268D01*
G37*
G36*
X21911Y42272D02*
X20853Y43329D01*
X20869Y43361D01*
X27804Y42343D01*
X27800Y42298D01*
X21911Y42272D01*
G37*
G36*
X152346Y42140D02*
X144078Y42456D01*
X144067Y42487D01*
X217110Y106634D01*
X217143Y106599D01*
X152346Y42140D01*
G37*
G36*
X159800Y42140D02*
X152320Y42140D01*
X152307Y42171D01*
X217108Y106634D01*
X217143Y106601D01*
X159800Y42140D01*
G37*
G36*
X159790Y42130D02*
X159754Y42163D01*
X217091Y106617D01*
X219821Y109347D01*
X219856Y109314D01*
X159790Y42130D01*
G37*
G36*
X169349Y42130D02*
X169310Y42160D01*
X219802Y109328D01*
X229917Y122064D01*
X229955Y122034D01*
X169349Y42130D01*
G37*
G36*
X169357Y42140D02*
X159773Y42140D01*
X159759Y42169D01*
X219819Y109347D01*
X219855Y109317D01*
X169357Y42140D01*
G37*
G36*
X176810Y42140D02*
X169329Y42140D01*
X169316Y42168D01*
X229916Y122064D01*
X229954Y122036D01*
X176810Y42140D01*
G37*
G36*
X183453Y42140D02*
X176782Y42140D01*
X176768Y42166D01*
X229913Y122063D01*
X229954Y122038D01*
X183453Y42140D01*
G37*
G36*
X190906Y42140D02*
X183425Y42140D01*
X183410Y42165D01*
X229911Y122063D01*
X229953Y122040D01*
X190906Y42140D01*
G37*
G36*
X200464Y42140D02*
X190851Y42140D01*
X229909Y122062D01*
X229952Y122043D01*
X200464Y42140D01*
G37*
G36*
X207917Y42140D02*
X200411Y42140D01*
X229906Y122061D01*
X229951Y122046D01*
X207917Y42140D01*
G37*
G36*
X207951Y42078D02*
X207871Y42158D01*
X229904Y122060D01*
X229951Y122047D01*
X207951Y42078D01*
G37*
G36*
X229945Y42101D02*
X207906Y42101D01*
X229903Y122057D01*
X229945Y122051D01*
X229945Y42101D01*
G37*
G36*
X21896Y42080D02*
X21896Y42321D01*
X27802Y42347D01*
X27803Y42299D01*
X21896Y42080D01*
G37*
G36*
X27571Y42081D02*
X21897Y42081D01*
X21896Y42129D01*
X27793Y42348D01*
X27807Y42317D01*
X27571Y42081D01*
G37*
G36*
X44413Y42081D02*
X44177Y42316D01*
X44189Y42347D01*
X51819Y42544D01*
X51821Y42496D01*
X44413Y42081D01*
G37*
G36*
X50678Y42081D02*
X44398Y42081D01*
X44397Y42129D01*
X51815Y42545D01*
X51824Y42503D01*
X50678Y42081D01*
G37*
G36*
X66046Y42081D02*
X64900Y42503D01*
X64907Y42544D01*
X76400Y42504D01*
X76401Y42456D01*
X66046Y42081D01*
G37*
G36*
X76012Y42081D02*
X66026Y42081D01*
X66025Y42130D01*
X76392Y42505D01*
X76405Y42474D01*
X76012Y42081D01*
G37*
G36*
X91318Y42081D02*
X90925Y42474D01*
X90937Y42504D01*
X108111Y42544D01*
X108112Y42495D01*
X91318Y42081D01*
G37*
G36*
X106969Y42081D02*
X91304Y42081D01*
X91303Y42130D01*
X108107Y42544D01*
X108115Y42503D01*
X106969Y42081D01*
G37*
G36*
X122338Y42081D02*
X121191Y42503D01*
X121199Y42544D01*
X129542Y42504D01*
X129543Y42456D01*
X122338Y42081D01*
G37*
G36*
X129154Y42081D02*
X122317Y42081D01*
X122316Y42129D01*
X129533Y42505D01*
X129547Y42474D01*
X129154Y42081D01*
G37*
G36*
X144459Y42081D02*
X144066Y42474D01*
X144080Y42505D01*
X152361Y42189D01*
X152361Y42140D01*
X144459Y42081D01*
G37*
G36*
X152288Y42081D02*
X144445Y42081D01*
X144445Y42130D01*
X152353Y42190D01*
X152366Y42159D01*
X152288Y42081D01*
G37*
G36*
X176845Y42081D02*
X176767Y42159D01*
X176780Y42189D01*
X183463Y42189D01*
X183464Y42140D01*
X176845Y42081D01*
G37*
G36*
X183390Y42081D02*
X176831Y42081D01*
X176831Y42130D01*
X183455Y42190D01*
X183468Y42159D01*
X183390Y42081D01*
G37*
G36*
X54382Y42027D02*
X53089Y42503D01*
X53096Y42544D01*
X63630Y42544D01*
X63632Y42496D01*
X54382Y42027D01*
G37*
G36*
X62342Y42027D02*
X54362Y42027D01*
X54361Y42075D01*
X63626Y42545D01*
X63635Y42503D01*
X62342Y42027D01*
G37*
G36*
X110674Y42027D02*
X109380Y42503D01*
X109388Y42544D01*
X119922Y42544D01*
X119923Y42496D01*
X110674Y42027D01*
G37*
G36*
X118633Y42027D02*
X110653Y42027D01*
X110652Y42075D01*
X119918Y42545D01*
X119926Y42503D01*
X118633Y42027D01*
G37*
G36*
X81984Y41415D02*
X80925Y42474D01*
X80937Y42504D01*
X86398Y42504D01*
X86403Y42461D01*
X81984Y41415D01*
G37*
G36*
X85348Y41417D02*
X81970Y41417D01*
X81965Y41461D01*
X86388Y42508D01*
X86406Y42476D01*
X85348Y41417D01*
G37*
G36*
X135126Y41415D02*
X134067Y42474D01*
X134079Y42504D01*
X139540Y42504D01*
X139545Y42461D01*
X135126Y41415D01*
G37*
G36*
X138490Y41417D02*
X135111Y41417D01*
X135106Y41461D01*
X139530Y42508D01*
X139548Y42476D01*
X138490Y41417D01*
G37*
G36*
X33818Y41258D02*
X32759Y42317D01*
X32772Y42347D01*
X39217Y42347D01*
X39221Y42302D01*
X33818Y41258D01*
G37*
G36*
X38167Y41260D02*
X33804Y41260D01*
X33800Y41304D01*
X39208Y42350D01*
X39225Y42318D01*
X38167Y41260D01*
G37*
G36*
X160817Y41101D02*
X159759Y42159D01*
X159772Y42189D01*
X169368Y42189D01*
X169370Y42143D01*
X160817Y41101D01*
G37*
G36*
X168317Y41102D02*
X160803Y41102D01*
X160800Y41149D01*
X169359Y42191D01*
X169374Y42160D01*
X168317Y41102D01*
G37*
G36*
X191920Y41101D02*
X190862Y42159D01*
X190874Y42189D01*
X200470Y42189D01*
X200473Y42143D01*
X191920Y41101D01*
G37*
G36*
X199419Y41102D02*
X191905Y41102D01*
X191903Y41149D01*
X200461Y42191D01*
X200477Y42160D01*
X199419Y41102D01*
G37*
G36*
X55326Y41077D02*
X54357Y42046D01*
X54370Y42076D01*
X62360Y42076D01*
X62363Y42030D01*
X55326Y41077D01*
G37*
G36*
X61399Y41078D02*
X55312Y41078D01*
X55309Y41124D01*
X62352Y42078D01*
X62367Y42047D01*
X61399Y41078D01*
G37*
G36*
X111618Y41077D02*
X110648Y42046D01*
X110661Y42076D01*
X118652Y42076D01*
X118655Y42030D01*
X111618Y41077D01*
G37*
G36*
X117690Y41078D02*
X111603Y41078D01*
X111600Y41124D01*
X118643Y42078D01*
X118659Y42047D01*
X117690Y41078D01*
G37*
G36*
X55787Y39805D02*
X55300Y41127D01*
X61410Y41127D01*
X61415Y41083D01*
X55787Y39805D01*
G37*
G36*
X60938Y39809D02*
X55781Y39809D01*
X55776Y39853D01*
X61397Y41130D01*
X61416Y41108D01*
X60938Y39809D01*
G37*
G36*
X112078Y39805D02*
X111591Y41127D01*
X117702Y41127D01*
X117707Y41083D01*
X112078Y39805D01*
G37*
G36*
X117229Y39809D02*
X112072Y39809D01*
X112067Y39853D01*
X117688Y41130D01*
X117708Y41108D01*
X117229Y39809D01*
G37*
G36*
X12056Y37259D02*
X2335Y122052D01*
X2383Y122057D01*
X12103Y42298D01*
X12103Y37262D01*
X12056Y37259D01*
G37*
G36*
X12084Y37185D02*
X12054Y37197D01*
X12054Y37302D01*
X12084Y37314D01*
X12149Y37250D01*
X12084Y37185D01*
G37*
G36*
X12056Y37188D02*
X2335Y122052D01*
X2383Y122057D01*
X12103Y37287D01*
X12103Y37190D01*
X12056Y37188D01*
G37*
G36*
X55808Y34940D02*
X55778Y34952D01*
X55778Y39858D01*
X60937Y39858D01*
X60950Y39827D01*
X55808Y34940D01*
G37*
G36*
X60945Y34944D02*
X55786Y34944D01*
X55774Y34975D01*
X60916Y39863D01*
X60945Y39850D01*
X60945Y34944D01*
G37*
G36*
X112099Y34940D02*
X112069Y34952D01*
X112069Y39858D01*
X117229Y39858D01*
X117241Y39827D01*
X112099Y34940D01*
G37*
G36*
X117237Y34944D02*
X112077Y34944D01*
X112065Y34975D01*
X117207Y39863D01*
X117237Y39850D01*
X117237Y34944D01*
G37*
G36*
X55326Y33672D02*
X55307Y33694D01*
X55785Y34993D01*
X60943Y34993D01*
X60948Y34950D01*
X55326Y33672D01*
G37*
G36*
X61424Y33675D02*
X55313Y33675D01*
X55308Y33719D01*
X60936Y34997D01*
X61424Y33675D01*
G37*
G36*
X111618Y33672D02*
X111598Y33694D01*
X112077Y34993D01*
X117234Y34993D01*
X117239Y34950D01*
X111618Y33672D01*
G37*
G36*
X117715Y33675D02*
X111604Y33675D01*
X111600Y33719D01*
X117228Y34997D01*
X117715Y33675D01*
G37*
G36*
X160832Y33646D02*
X160802Y33659D01*
X160802Y41152D01*
X168323Y41152D01*
X168336Y41121D01*
X160832Y33646D01*
G37*
G36*
X168331Y33651D02*
X160810Y33651D01*
X160797Y33681D01*
X168301Y41156D01*
X168331Y41143D01*
X168331Y33651D01*
G37*
G36*
X191934Y33646D02*
X191904Y33659D01*
X191904Y41152D01*
X199425Y41152D01*
X199438Y41121D01*
X191934Y33646D01*
G37*
G36*
X199434Y33651D02*
X191912Y33651D01*
X191900Y33681D01*
X199403Y41156D01*
X199434Y41143D01*
X199434Y33651D01*
G37*
G36*
X33838Y33489D02*
X33802Y33499D01*
X33802Y41309D01*
X38199Y41309D01*
X33838Y33489D01*
G37*
G36*
X38182Y33493D02*
X33784Y33493D01*
X38145Y41313D01*
X38182Y41304D01*
X38182Y33493D01*
G37*
G36*
X82007Y33332D02*
X81967Y33340D01*
X81967Y41467D01*
X85375Y41467D01*
X82007Y33332D01*
G37*
G36*
X85363Y33336D02*
X81955Y33336D01*
X85323Y41470D01*
X85363Y41462D01*
X85363Y33336D01*
G37*
G36*
X135148Y33332D02*
X135109Y33340D01*
X135109Y41467D01*
X138517Y41467D01*
X135148Y33332D01*
G37*
G36*
X138504Y33336D02*
X135097Y33336D01*
X138465Y41470D01*
X138504Y41462D01*
X138504Y33336D01*
G37*
G36*
X54372Y32724D02*
X54356Y32755D01*
X55325Y33724D01*
X61411Y33724D01*
X61414Y33678D01*
X54372Y32724D01*
G37*
G36*
X62354Y32726D02*
X54363Y32726D01*
X54360Y32772D01*
X61397Y33726D01*
X62366Y32756D01*
X62354Y32726D01*
G37*
G36*
X110663Y32724D02*
X110647Y32755D01*
X111616Y33724D01*
X117703Y33724D01*
X117706Y33678D01*
X110663Y32724D01*
G37*
G36*
X118645Y32726D02*
X110654Y32726D01*
X110651Y32772D01*
X117688Y33726D01*
X118658Y32756D01*
X118645Y32726D01*
G37*
G36*
X152353Y32613D02*
X144445Y32672D01*
X144445Y32721D01*
X152288Y32721D01*
X152366Y32643D01*
X152353Y32613D01*
G37*
G36*
X159774Y32611D02*
X159759Y32642D01*
X160816Y33700D01*
X168330Y33700D01*
X168333Y33653D01*
X159774Y32611D01*
G37*
G36*
X169361Y32613D02*
X159765Y32613D01*
X159762Y32659D01*
X168316Y33701D01*
X169373Y32643D01*
X169361Y32613D01*
G37*
G36*
X176780Y32613D02*
X176767Y32643D01*
X176845Y32721D01*
X183404Y32721D01*
X183405Y32672D01*
X176780Y32613D01*
G37*
G36*
X183455Y32613D02*
X176772Y32613D01*
X176772Y32662D01*
X183390Y32721D01*
X183468Y32643D01*
X183455Y32613D01*
G37*
G36*
X190876Y32611D02*
X190861Y32642D01*
X191918Y33700D01*
X199432Y33700D01*
X199435Y33653D01*
X190876Y32611D01*
G37*
G36*
X200463Y32613D02*
X190868Y32613D01*
X190865Y32659D01*
X199418Y33701D01*
X200476Y32643D01*
X200463Y32613D01*
G37*
G36*
X207882Y32613D02*
X207870Y32643D01*
X207928Y32701D01*
X229945Y32701D01*
X229945Y32652D01*
X207882Y32613D01*
G37*
G36*
X27793Y32455D02*
X21896Y32673D01*
X21897Y32721D01*
X27571Y32721D01*
X27807Y32485D01*
X27793Y32455D01*
G37*
G36*
X32775Y32452D02*
X32758Y32484D01*
X33816Y33542D01*
X38179Y33542D01*
X38184Y33498D01*
X32775Y32452D01*
G37*
G36*
X39211Y32455D02*
X32766Y32455D01*
X32762Y32500D01*
X38165Y33544D01*
X39224Y32486D01*
X39211Y32455D01*
G37*
G36*
X44190Y32455D02*
X44177Y32485D01*
X44412Y32721D01*
X50698Y32721D01*
X50698Y32673D01*
X44190Y32455D01*
G37*
G36*
X76392Y32297D02*
X66025Y32673D01*
X66026Y32721D01*
X76012Y32721D01*
X76405Y32328D01*
X76392Y32297D01*
G37*
G36*
X80941Y32294D02*
X80923Y32327D01*
X81981Y33385D01*
X85360Y33385D01*
X85365Y33341D01*
X80941Y32294D01*
G37*
G36*
X86392Y32298D02*
X80932Y32298D01*
X80927Y32341D01*
X85346Y33387D01*
X86405Y32328D01*
X86392Y32298D01*
G37*
G36*
X90938Y32297D02*
X90925Y32328D01*
X91318Y32721D01*
X106989Y32721D01*
X106990Y32672D01*
X90938Y32297D01*
G37*
G36*
X129533Y32297D02*
X122316Y32673D01*
X122317Y32721D01*
X129154Y32721D01*
X129547Y32328D01*
X129533Y32297D01*
G37*
G36*
X134083Y32294D02*
X134065Y32327D01*
X135123Y33385D01*
X138502Y33385D01*
X138507Y33341D01*
X134083Y32294D01*
G37*
G36*
X139534Y32298D02*
X134074Y32298D01*
X134069Y32341D01*
X138488Y33387D01*
X139547Y32328D01*
X139534Y32298D01*
G37*
G36*
X144080Y32297D02*
X144066Y32328D01*
X144459Y32721D01*
X152361Y32662D01*
X152361Y32614D01*
X144080Y32297D01*
G37*
G36*
X144071Y32298D02*
X144070Y32346D01*
X152336Y32662D01*
X207923Y32662D01*
X207923Y32613D01*
X144071Y32298D01*
G37*
G36*
X144071Y32298D02*
X144071Y32347D01*
X207899Y32662D01*
X229945Y32701D01*
X229945Y32652D01*
X144071Y32298D01*
G37*
G36*
X51816Y32258D02*
X44181Y32456D01*
X44181Y32504D01*
X50677Y32721D01*
X51824Y32299D01*
X51816Y32258D01*
G37*
G36*
X51820Y32258D02*
X27753Y32455D01*
X27753Y32504D01*
X44206Y32504D01*
X51820Y32307D01*
X51820Y32258D01*
G37*
G36*
X53097Y32257D02*
X53089Y32299D01*
X54382Y32775D01*
X62361Y32775D01*
X62363Y32727D01*
X53097Y32257D01*
G37*
G36*
X63627Y32258D02*
X53093Y32258D01*
X53092Y32306D01*
X62341Y32775D01*
X63634Y32299D01*
X63627Y32258D01*
G37*
G36*
X64907Y32258D02*
X64900Y32299D01*
X66046Y32721D01*
X76401Y32346D01*
X76400Y32298D01*
X64907Y32258D01*
G37*
G36*
X64903Y32258D02*
X64903Y32307D01*
X76376Y32347D01*
X90978Y32347D01*
X90978Y32298D01*
X64903Y32258D01*
G37*
G36*
X108107Y32258D02*
X90929Y32298D01*
X90929Y32346D01*
X106969Y32721D01*
X108115Y32299D01*
X108107Y32258D01*
G37*
G36*
X108111Y32258D02*
X64903Y32258D01*
X64903Y32308D01*
X90954Y32347D01*
X108111Y32308D01*
X108111Y32258D01*
G37*
G36*
X109388Y32257D02*
X109380Y32299D01*
X110673Y32775D01*
X118653Y32775D01*
X118654Y32727D01*
X109388Y32257D01*
G37*
G36*
X119918Y32258D02*
X109384Y32258D01*
X109383Y32306D01*
X118633Y32775D01*
X119926Y32299D01*
X119918Y32258D01*
G37*
G36*
X121199Y32258D02*
X121191Y32299D01*
X122338Y32721D01*
X129543Y32346D01*
X129542Y32298D01*
X121199Y32258D01*
G37*
G36*
X121195Y32258D02*
X121195Y32307D01*
X129518Y32347D01*
X144120Y32347D01*
X144120Y32298D01*
X121195Y32258D01*
G37*
G36*
X12056Y32177D02*
X2335Y122052D01*
X2383Y122057D01*
X12103Y37215D01*
X12103Y32179D01*
X12056Y32177D01*
G37*
G36*
X21896Y32177D02*
X21896Y32722D01*
X27802Y32504D01*
X27802Y32456D01*
X21896Y32177D01*
G37*
G36*
X21897Y32178D02*
X21896Y32226D01*
X27777Y32504D01*
X51820Y32307D01*
X51820Y32258D01*
X21897Y32178D01*
G37*
G36*
X21896Y32178D02*
X21896Y32227D01*
X51795Y32308D01*
X121244Y32308D01*
X121244Y32258D01*
X21896Y32178D01*
G37*
G36*
X20867Y31140D02*
X20854Y31171D01*
X21911Y32227D01*
X121244Y32308D01*
X121244Y32259D01*
X20867Y31140D01*
G37*
G36*
X20859Y31140D02*
X20858Y31189D01*
X121219Y32308D01*
X144120Y32347D01*
X144120Y32298D01*
X20859Y31140D01*
G37*
G36*
X20859Y31140D02*
X20858Y31189D01*
X144095Y32347D01*
X229945Y32701D01*
X229945Y32652D01*
X20859Y31140D01*
G37*
G36*
X2376Y11799D02*
X2337Y11808D01*
X2337Y122053D01*
X2384Y122056D01*
X12103Y32198D01*
X2376Y11799D01*
G37*
G36*
X2372Y11794D02*
X2329Y11816D01*
X12071Y32245D01*
X13147Y31169D01*
X2372Y11794D01*
G37*
G36*
X2365Y11795D02*
X2330Y11820D01*
X13102Y31189D01*
X20899Y31189D01*
X20912Y31160D01*
X2365Y11795D01*
G37*
G36*
X2347Y11801D02*
X2332Y11832D01*
X20872Y31189D01*
X229944Y32701D01*
X229946Y32654D01*
X2347Y11801D01*
G37*
G36*
X229945Y11803D02*
X2338Y11803D01*
X2336Y11850D01*
X229945Y32704D01*
X229945Y11803D01*
G37*
G36*
X2484Y10145D02*
X2335Y11852D01*
X229945Y11852D01*
X229945Y11803D01*
X2484Y10145D01*
G37*
G36*
X229798Y10145D02*
X2482Y10145D01*
X2482Y10194D01*
X229948Y11852D01*
X229798Y10145D01*
G37*
G36*
X2914Y8555D02*
X2475Y10195D01*
X229800Y10195D01*
X229800Y10146D01*
X2914Y8555D01*
G37*
G36*
X229368Y8555D02*
X2908Y8555D01*
X2908Y8604D01*
X229808Y10195D01*
X229368Y8555D01*
G37*
G36*
X3613Y7062D02*
X2894Y8604D01*
X229374Y8604D01*
X229374Y8555D01*
X3613Y7062D01*
G37*
G36*
X228669Y7062D02*
X3604Y7062D01*
X3604Y7111D01*
X229388Y8604D01*
X228669Y7062D01*
G37*
G36*
X4561Y5713D02*
X3600Y7085D01*
X3614Y7111D01*
X228678Y7111D01*
X228678Y7062D01*
X4561Y5713D01*
G37*
G36*
X227722Y5713D02*
X4549Y5713D01*
X4549Y5762D01*
X228668Y7112D01*
X228682Y7085D01*
X227722Y5713D01*
G37*
G36*
X5728Y4549D02*
X4544Y5732D01*
X4557Y5763D01*
X227734Y5763D01*
X227734Y5713D01*
X5728Y4549D01*
G37*
G36*
X226555Y4549D02*
X5713Y4549D01*
X5713Y4598D01*
X227725Y5763D01*
X227738Y5732D01*
X226555Y4549D01*
G37*
G36*
X225203Y3604D02*
X5713Y4549D01*
X5713Y4598D01*
X226563Y4598D01*
X226573Y4564D01*
X225203Y3604D01*
G37*
G36*
X7079Y3604D02*
X5709Y4564D01*
X5720Y4598D01*
X225220Y3653D01*
X225220Y3604D01*
X7079Y3604D01*
G37*
G36*
X8574Y2908D02*
X7059Y3615D01*
X7067Y3654D01*
X225220Y3654D01*
X225220Y3604D01*
X8574Y2908D01*
G37*
G36*
X223709Y2908D02*
X8555Y2908D01*
X8555Y2958D01*
X225215Y3654D01*
X225224Y3615D01*
X223709Y2908D01*
G37*
G36*
X10167Y2482D02*
X8552Y2915D01*
X8558Y2958D01*
X223728Y2958D01*
X223728Y2908D01*
X10167Y2482D01*
G37*
G36*
X222116Y2482D02*
X10145Y2482D01*
X10145Y2531D01*
X223725Y2958D01*
X223730Y2915D01*
X222116Y2482D01*
G37*
G36*
X11826Y2337D02*
X10144Y2484D01*
X10146Y2531D01*
X222137Y2531D01*
X222137Y2482D01*
X11826Y2337D01*
G37*
G36*
X220456Y2337D02*
X11803Y2337D01*
X11803Y2386D01*
X222136Y2531D01*
X222138Y2484D01*
X220456Y2337D01*
G37*
G36*
X12283Y2337D02*
X11803Y2337D01*
X11803Y2386D01*
X220480Y2386D01*
X220480Y2337D01*
X12283Y2337D01*
G37*
G36*
X220000Y2337D02*
X12258Y2337D01*
X12258Y2386D01*
X220480Y2386D01*
X220480Y2337D01*
X220000Y2337D01*
G37*
G36*
X202362Y34448D02*
X202362Y40354D01*
X231692Y40354D01*
X231692Y34448D01*
X202362Y34448D01*
G37*
G36*
X64267Y34448D02*
X64267Y40354D01*
X78665Y40354D01*
X78665Y34448D01*
X64267Y34448D01*
G37*
G36*
X14000Y34448D02*
X14000Y40354D01*
X30283Y40354D01*
X30283Y34448D01*
X14000Y34448D01*
G37*
G36*
X41700Y34448D02*
X41700Y40354D01*
X52456Y40354D01*
X52456Y34448D01*
X41700Y34448D01*
G37*
G36*
X88665Y34448D02*
X88665Y40354D01*
X108748Y40354D01*
X108748Y34448D01*
X88665Y34448D01*
G37*
G36*
X120559Y34448D02*
X120559Y40354D01*
X131807Y40354D01*
X131807Y34448D01*
X120559Y34448D01*
G37*
G36*
X141807Y34448D02*
X141807Y40354D01*
X156062Y40354D01*
X156062Y34448D01*
X141807Y34448D01*
G37*
G36*
X173070Y34448D02*
X173070Y40354D01*
X187165Y40354D01*
X187165Y34448D01*
X173070Y34448D01*
G37*
M02*
